<svg id="Layer_1" data-name="Layer 1" xmlns="http://www.w3.org/2000/svg" xmlns:xlink="http://www.w3.org/1999/xlink" viewBox="0 0 3799.22 3019.03"><defs><style>.cls-1{mask:url(#mask);}.cls-2,.cls-9{fill:#001438;}.cls-3{fill:#fff;}.cls-10,.cls-11,.cls-12,.cls-13,.cls-14,.cls-3,.cls-4,.cls-5,.cls-6,.cls-7,.cls-8,.cls-9{fill-rule:evenodd;}.cls-4{fill:#96d0ff;}.cls-5{fill:#12b8ff;}.cls-6{fill:#0988f0;}.cls-7{fill:#0067c7;}.cls-8{fill:#c9e7ff;}.cls-10{fill:#00264a;}.cls-11{fill:#ff0;}.cls-12{fill:#e8ae00;}.cls-13{fill:#fc0;}.cls-14{fill:#ffffb2;}.cls-15{filter:url(#luminosity-noclip);}</style><filter id="luminosity-noclip" x="0" y="-9189.1" width="3799.22" height="32766" filterUnits="userSpaceOnUse" color-interpolation-filters="sRGB"><feFlood flood-color="#fff" result="bg"/><feBlend in="SourceGraphic" in2="bg"/></filter><mask id="mask" x="0" y="-9189.1" width="3799.22" height="32766" maskUnits="userSpaceOnUse"><g class="cls-15"/></mask></defs><g class="cls-1"><path class="cls-2" d="M2897.07,0h29.4a73.21,73.21,0,0,1,52,22,79.19,79.19,0,0,1,23.2,56.3V1226.7a79.19,79.19,0,0,1-23.2,56.3,73.21,73.21,0,0,1-52,22h-29.4a73.61,73.61,0,0,1-52.1-22,79.1,79.1,0,0,1-23.1-56.3V78.2A79.69,79.69,0,0,1,2845,21.9,73.51,73.51,0,0,1,2897.07,0Z"/><path class="cls-3" d="M2897.07,50.5h29.4a27.76,27.76,0,0,1,27.7,27.7V1226.6a27.76,27.76,0,0,1-27.7,27.7h-29.4a27.7,27.7,0,0,1-27.7-27.7V78.2A27.7,27.7,0,0,1,2897.07,50.5Z"/><path class="cls-4" d="M2954.27,203.3v1065a27.76,27.76,0,0,1-27.7,27.7h-29.4a27.7,27.7,0,0,1-27.7-27.7V203.3a27.7,27.7,0,0,1,27.7-27.7h29.4A27.76,27.76,0,0,1,2954.27,203.3Z"/><path class="cls-2" d="M3341.17,2129.2c6.6-3.8,12.9-7.2,18.8-10.2,74.5-37.5,154.4-46.7,225.2-30.8,73.8,16.6,137.9,60.6,176.9,128.5,2.1,3.7,4.5,8.1,7.1,13.3h0c38.4,76.2,38.7,164.1,8.3,244.7-29.1,76.9-86.5,147.2-165.5,192.6-6.5,3.8-12.8,7.2-18.8,10.2-74.5,37.5-154.5,46.7-225.2,30.8-73.9-16.6-137.9-60.6-176.9-128.5-2.5-4.3-4.9-8.7-7.1-13.3-38.4-76.2-38.7-164.1-8.3-244.7,29-76.9,86.5-147.2,165.5-192.6Zm59.5,81.5c-5.2,2.6-10,5.2-14.5,7.8-60.4,34.8-103.9,87.3-125.4,144.1-20,53.2-20.5,110,3.6,157.7,1.4,2.7,2.9,5.4,4.4,8.1,24.5,42.6,66.2,70.5,115.1,81.5,52,11.7,111.9,4.4,168.7-24.2,5.2-2.6,10-5.2,14.5-7.8,60.4-34.7,103.9-87.3,125.4-144.1,20.1-53.2,20.5-110-3.5-157.7v-.1c-1.1-2-2.5-4.7-4.4-8-24.5-42.6-66.2-70.5-115.1-81.5-52-11.6-111.9-4.4-168.8,24.2Z"/><path class="cls-5" d="M3363.77,2173.8c139.4-80.1,303-44.6,365.4,79.3s-.1,289.4-139.5,369.6-303,44.6-365.4-79.3,0-289.4,139.5-369.6Z"/><path class="cls-6" d="M3605.47,2613c-5.2,3.3-10.4,6.6-15.8,9.7-139.4,80.1-303,44.6-365.4-79.3-49.2-97.8-20.7-221.5,62-308.7,5.2-3.4,10.5-6.6,15.8-9.7,139.5-80.1,303.1-44.6,365.4,79.3,49.2,97.8,20.7,221.5-62,308.7Z"/><path class="cls-7" d="M3240.57,2570.8a223,223,0,0,1-16.4-27.4c-49.2-97.8-20.7-221.5,62-308.7,5.2-3.4,10.5-6.6,15.8-9.7,86.7-49.8,182.6-54.9,257.9-22,30.1,116.6-33,254.1-156.2,325-53.2,30.6-109.9,44.3-163.1,42.8Z"/><path class="cls-2" d="M3344.17,2379c27.9-7.4,64.7-29.2,95.5-58.4,26.7-25.3,47.2-54.9,49.5-82.6a697.31,697.31,0,0,0-34.9-105.2,771,771,0,0,0-56.3-107.7c-51.7-82.8-118.9-157.8-195.8-224.1-72.7-62.6-154.2-117.6-239.8-164.1-73,120.5-145.5,228.4-212,311.3-29.7,37-58.5,69.4-86.2,96a1621,1621,0,0,1,319.4,107.1q193.35,88.65,360.6,227.7Zm165,14.7c-53.3,50.4-125.5,85.8-176,88.6a49.93,49.93,0,0,1-37-11.9q-164.25-140.1-354.4-227.3-189-86.55-404.7-120.5a50.47,50.47,0,0,1-14.9-97.1c38.5-15.7,90.2-66.2,149.6-140.4,70.6-88.1,149.2-207.2,228.3-340.5h0a50.32,50.32,0,0,1,66.1-19.4c107.6,54.4,210.7,121.3,301.8,199.7,84.4,72.7,158.3,155.4,215.5,247a875.31,875.31,0,0,1,63.4,121.9,788.8,788.8,0,0,1,41.8,127.2h-.1a47,47,0,0,1,1.3,11.2c.5,60.6-34.3,117.5-80.7,161.5Z"/><path class="cls-3" d="M3329,2432.1c71.9-2.5,211.2-99.7,210.8-199.6-19.7-83.5-53.8-161.6-98.9-233.9-113.6-182-297.3-327.3-497.2-428.3h0c-151.8,256-303,461.6-402.4,502,299.6,46.3,561.7,167.1,787.7,359.8Z"/><path class="cls-4" d="M3329,2432.1c53.2-1.8,143.4-55.6,186.5-123.9-88-243.9-482.9-689.3-784.4-634.3-128,202.6-105.3,364-189.9,398.4,299.6,46.3,561.8,167.1,787.8,359.8Z"/><path class="cls-2" d="M3176.87,2356.5c-10.5,1.4-20.1-6.4-21.4-17.5s6.2-21.2,16.7-22.6c70.5-9.6,130.1-51.6,173.2-112.1,46-64.6,73.2-150.2,74.9-240.3.2-11.1,9-20,19.6-19.8s18.9,9.4,18.7,20.5c-1.9,98.5-31.8,192.4-82.6,263.7-49,69-117.5,117-199.1,128.1Z"/><path class="cls-2" d="M2997.47,2251.9c-10.2,3.1-20.8-3.1-23.6-13.8s3-21.9,13.2-24.9c69.5-21.2,143.9-92.1,198.7-175.3s89.6-177.8,79.7-245.4c-1.6-11,5.6-21.3,16.1-23s20.2,5.8,21.8,16.8c11.5,78.1-26.2,183.4-86.1,274.5-59.5,90-141.4,167.2-219.8,191.1Z"/><path class="cls-2" d="M2763,2158.9c-10,3.8-20.9-1.6-24.5-12.1s1.6-22,11.6-25.8c74.5-28.6,148.4-106,203-200.4,54.7-94.6,89.5-205.5,85.7-301-.4-11.1,7.8-20.5,18.4-21s19.4,8.1,19.8,19.2c4.1,103.6-32.9,222.7-91.2,323.5C2927.07,2043.1,2846,2127.1,2763,2158.9Z"/><path class="cls-2" d="M431.27,897.5l323.9,3.4v-.2h.2a47.27,47.27,0,0,1,6.5.4,132.84,132.84,0,0,1,87.9,39.5,125.22,125.22,0,0,1,36,88.5h.2v.2c0,1.5-.1,3.1-.2,4.6l-8.4,672.1a125.88,125.88,0,0,1-38.2,88.5,133.4,133.4,0,0,1-94.8,37.8l-323.9-3.4v.2h-.2a47.27,47.27,0,0,1-6.5-.4,132.37,132.37,0,0,1-87.9-39.5,125.64,125.64,0,0,1-36-88.5h-.1v-.2c0-1.5.1-3.1.2-4.6l8.4-672.1a125.88,125.88,0,0,1,38.2-88.5,132.91,132.91,0,0,1,94.7-37.8Zm323.5,96.2-324.2-3.4a29,29,0,0,0-20.4,8.7,36.06,36.06,0,0,0-10.9,25.5l-8.4,672.4c.1,1.2.1,2.4.1,3.5v.2h-.2v.4a36,36,0,0,0,10.2,25.8,29.42,29.42,0,0,0,17.5,9h1.9v.2h.4l324.2,3.4a29.36,29.36,0,0,0,20.4-8.6,36.06,36.06,0,0,0,10.9-25.5l8.4-672.4c-.1-1.2-.1-2.3-.1-3.6v-.2h.2v-.4a36.44,36.44,0,0,0-10.2-25.8,29.44,29.44,0,0,0-17.4-9h-1.9v-.2Z"/><path class="cls-6" d="M430.87,943.9l324.3,3.4a81.09,81.09,0,0,1,80,81.9l-8.4,676.3a81.5,81.5,0,0,1-82.1,80.2l-324.3-3.4a81,81,0,0,1-80-81.9l8.4-676.3c.6-44.6,37.5-80.7,82.1-80.2Z"/><path class="cls-7" d="M430.87,943.9l28.2.3c-29.3,18.8-58.1,38-65.8,72.1q-4.35,346-8.6,692.1c-1.8,31.5,12.9,51.9,26,73.3-40-4.9-70.9-36.7-70.5-74.6q4.35-344.85,8.6-689.6c.6-40.9,37.5-74,82.1-73.6Z"/><path class="cls-2" d="M2984,990.3l-324.2,3.4h-.4v.2h-1.9a29.16,29.16,0,0,0-17.4,9,36,36,0,0,0-10.2,25.8v.4h.2v.2c0,1.2-.1,2.4-.2,3.6l8.4,672.4a36.06,36.06,0,0,0,10.9,25.5,28.52,28.52,0,0,0,20.4,8.6l324.2-3.4h.5v-.2h1.9a29.16,29.16,0,0,0,17.4-9,36.53,36.53,0,0,0,10.3-25.8v-.4h-.2v-.2c0-1.2.1-2.4.1-3.5l-8.4-672.4a36.06,36.06,0,0,0-10.9-25.5,29.45,29.45,0,0,0-20.5-8.7Zm-324.6-89.4,323.9-3.4a133.31,133.31,0,0,1,94.8,37.8,125.88,125.88,0,0,1,38.2,88.5l8.3,672.1a23.63,23.63,0,0,1,.2,4.6v.2h-.2a125.22,125.22,0,0,1-36,88.5,132.84,132.84,0,0,1-87.9,39.5,47.27,47.27,0,0,1-6.5.4h-.1v-.2l-323.9,3.4a132.91,132.91,0,0,1-94.7-37.8,125.88,125.88,0,0,1-38.2-88.5l-8.4-672.1a35.4,35.4,0,0,1-.2-4.6v-.1h.2a125.22,125.22,0,0,1,36-88.5,132.84,132.84,0,0,1,87.9-39.5,47.27,47.27,0,0,1,6.5-.4h.2l-.1.1Z"/><path class="cls-6" d="M2983.57,943.9l-324.3,3.4a81,81,0,0,0-80,81.9l8.4,676.3a81.57,81.57,0,0,0,82.1,80.2l324.3-3.4a81,81,0,0,0,80-81.9l-8.4-676.3a81.57,81.57,0,0,0-82.1-80.2Z"/><path class="cls-5" d="M2983.57,943.9l-28.2.3c29.3,18.8,58.1,38,65.8,72.1q4.35,346,8.6,692.1c1.8,31.5-12.9,51.9-26,73.3,40-4.9,70.9-36.7,70.4-74.6q-4.35-344.85-8.6-689.6c-.5-40.9-37.4-74-82-73.6Z"/><path class="cls-2" d="M1699.67,2878c161.9,1.3,417.7-40.4,642.1-103,174.3-48.7,325.7-108.1,389.8-166.2,36.3-260.9,55.5-706,21.9-1134.6-25.2-321.8-79.8-632.3-178.7-843.4-58.8-125.4-172.9-221.9-316-289-161.9-75.9-360.3-113.8-559.6-113.8s-397.7,37.9-559.6,113.8c-143.1,67.1-257.2,163.6-316,289-99,211-153.5,521.5-178.7,843.4-33.5,428.6-14.4,873.6,21.9,1134.6,64.1,58.2,215.6,117.6,389.8,166.2,224.3,62.7,480.2,104.3,642,103Zm679.6,33c-235,65.6-505.9,109.3-680.2,108-174.2,1.3-445.2-42.4-680.2-108-208.3-58.2-392.8-136-468.8-219.5a70.38,70.38,0,0,1-20.1-39.9c-39.5-265.2-61.6-736.4-26.2-1187.9,26.3-336.4,84.8-663.9,192-892.6,73.9-157.6,212.2-276.5,384-357,181.5-85.1,400.9-127.7,619.3-127.7s437.8,42.6,619.3,127.7c171.8,80.5,310.1,199.4,384,357,107.2,228.7,165.7,556.2,192,892.6,35.4,451.6,13.3,922.8-26.2,1187.9h-.1a69.05,69.05,0,0,1-16.5,35.9c-73.6,85.1-260.7,164.4-472.3,223.5Z"/><path class="cls-8" d="M1699.17,2948.5c314.1,2.5,961.8-148.6,1099.1-307.1,67.7-453.8,83.2-1522.4-159.6-2040.4-277.4-591.7-1601.6-591.7-1879,0-242.9,518.1-227.3,1586.6-159.6,2040.4,137.2,158.5,785,309.6,1099.1,307.1Z"/><path class="cls-4" d="M1408.27,183.9c-290.3,54.8-544,193.7-648.6,417-242.9,518-227.3,1586.6-159.7,2040.4,58.5,67.5,209.6,133.7,388,187.2-141.3-289.2-225.1-587.8-270.2-904-56.6-396.7-57.2-822.7,128.7-1238.4,78.4-175.3,341.9-405.3,564.2-497.8l-2.4-4.4Z"/><path class="cls-3" d="M2439.27,2819.6c165.7-51.9,303.7-114.5,359-178.3,67.7-453.8,83.2-1522.3-159.6-2040.4-102-217.5-345.4-354.9-626.2-412.5,222.4,92.6,485.7,322.5,564.1,497.8,185.9,415.7,185.2,841.7,128.6,1238.4-44.6,313-127.2,608.6-265.9,895Z"/><path class="cls-2" d="M2311.17,357.1c-171.2-92.8-391.1-139.3-612-139.3s-440.9,46.5-612.1,139.3l238.1,450.1,373-6.1h1.9l373,6.1Zm-612-260.5c262.4,0,526,61.7,722.7,185.2a60.43,60.43,0,0,1,23.4,80.6l-282.4,534h-.1a60.31,60.31,0,0,1-54.4,32.2l-409.2-6.6-405.8,6.6a60.5,60.5,0,0,1-58-32.2L953,362.4h0a60.47,60.47,0,0,1,21.3-79.3c197-124.3,461.4-186.5,724.9-186.5Z"/><path class="cls-6" d="M2391.77,334.3c-373.9-236-1011.4-236-1385.2,0l282.4,534,410.2-6.7,410.2,6.7,282.4-534Z"/><path class="cls-7" d="M1408.37,184c-148.5,28-287.5,78.1-401.8,150.2l47.7,90.2c107.7-98.4,237.9-186.8,356.5-236.1l-2.4-4.3Z"/><path class="cls-5" d="M2391.77,334.3c-108.5-68.5-239.2-117.1-379.3-145.8,112.4,46.8,235.3,128.8,339.5,221l39.8-75.2Z"/><path class="cls-2" d="M2523.77,807a129.49,129.49,0,0,1,12.7,10.8c74.9,71.9,114.8,283.2,120,495.7,5.1,210.3-23.1,427.3-84.7,513.5a162,162,0,0,1-14.9,18.2,50.92,50.92,0,0,1-17,11.6c-198.1,99.1-527.4,148.7-854.9,148.7-329.4,0-660.5-50.1-858.3-150.4a49.31,49.31,0,0,1-13.6-10l-.1.1a162,162,0,0,1-14.9-18.2c-61.5-86.2-89.8-303.2-84.7-513.5,5.2-212.5,45.1-423.8,120-495.7A136.93,136.93,0,0,1,849,804.9a51.85,51.85,0,0,1,5-3.1v-.1c68.9-38,451.6-57.1,831-57.1s762.1,19,831,57.1a46.55,46.55,0,0,1,7.8,5.3Zm-58.7,78.3c-.8-.7-1.5-1.4-2.2-2-61.2-28.4-417.9-42.6-777.9-42.6s-716.7,14.2-777.9,42.6c-.7.6-1.4,1.3-2.2,2-55.7,53.5-86.1,238.5-90.8,430-4.7,193.7,17.7,388.4,67.3,458l1.3,1.8c183.7,89.6,492.1,134.4,802.1,134.4s618.5-44.8,802.1-134.4l1.3-1.8c49.7-69.6,72-264.3,67.4-458-4.4-191.5-34.8-376.6-90.5-430Z"/><path class="cls-8" d="M2490.67,843.1c144.3,103,154.1,839.3,28.9,969.8-380.3,192.8-1288.9,192.8-1669.2,0-125.2-130.5-115.4-866.8,28.9-969.8C1001.17,775.8,2368.77,775.8,2490.67,843.1Z"/><path class="cls-4" d="M833.27,1790c-106.8-177-91.3-848.9,46-946.9,121.9-67.3,1489.6-67.3,1611.5,0-33.3-13.9-90.5,47.5-81.3,76.1-444.3,235.7-1026.9,604.3-1471.2,840-45-8.3-65.8-10.5-105,30.8Z"/><path class="cls-2" d="M2419.77,896.3a132.65,132.65,0,0,1,19,16.1c63.4,63.7,97.2,236.8,101.7,410.7,4.5,172.1-19.1,350-70.5,425.6a147.09,147.09,0,0,1-18.1,22,50.74,50.74,0,0,1-13.5,9.5l.1.2c-173.4,83.9-464.2,125.8-753.4,125.8s-580.1-41.9-753.4-125.8a50.11,50.11,0,0,1-17.3-13.7,153.89,153.89,0,0,1-14.2-18c-51.5-75.6-75.1-253.5-70.6-425.6,4.5-173.9,38.3-347,101.7-410.7a126.5,126.5,0,0,1,19-16.1,52.46,52.46,0,0,1,11.8-6c76.2-30.1,401.2-45.2,723-45.2,332.7,0,668.8,16.1,729.9,48.3,1.5.9,3.2,1.9,4.8,2.9Zm-55.6,77.6a28.48,28.48,0,0,0-2.6-2.3c-54-23-363.6-34.4-676.6-34.4s-622.7,11.5-676.6,34.4a28.48,28.48,0,0,0-2.6,2.3c-46.3,46.6-71.6,196.2-75.7,351.4-4.1,157,14.4,314.8,55.6,375.3.7,1,1.3,1.9,1.9,2.7,159.7,73.9,427.8,110.9,697.4,110.9s537.7-37,697.4-110.9c.6-.9,1.3-1.8,1.9-2.7,41.2-60.5,59.6-218.3,55.6-375.3-4.1-155.3-29.4-304.9-75.7-351.4Z"/><path class="cls-9" d="M2389.57,933.2c125.8,85.6,134.3,698.1,25.2,806.6-331.9,160.5-1127.6,160.5-1459.5,0-109.2-108.5-100.6-721,25.2-806.6,106.2-56,1302.8-56,1409.1,0Z"/><path class="cls-10" d="M2451.27,1040.5c62.8,204.4,50.7,612.7-36.5,699.3-316.1,152.9-1052.9,160.2-1409,21.8,172.8-422.6,681.6-728.9,1282.4-728.9,55.2.1,109.6,2.6,163.1,7.8Z"/><path class="cls-2" d="M1284.77,2952.7c-158-30.4-322.2-73.9-455.3-124.1-121.7-45.9-219.4-98.6-267.6-154.2a50.64,50.64,0,0,1-11.8-25.7H550c-10.1-68-19.1-149.4-26.2-240.6-6.7-84.9-11.7-180.2-14.7-282.9a50.31,50.31,0,0,1,72.6-46.5h0c80.8,40.2,165.6,77,256.9,108.4a1857.35,1857.35,0,0,0,292.8,74.9,50.51,50.51,0,0,1,40.8,39l170.5,588.2a50.42,50.42,0,0,1-34.3,62.4,53.73,53.73,0,0,1-23.6,1.1ZM865,2734.2c105,39.6,231,75,357.7,102.7l-139.3-481.1a1967.65,1967.65,0,0,1-277.5-73.2c-67.2-23.1-131.2-49.2-193.1-77.5,2.9,68,6.9,133.6,11.8,195.5,6.4,81.7,14.3,155.3,23.2,217.9,40.1,38.7,118.7,78.5,217.2,115.7Z"/><path class="cls-6" d="M1294.27,2903.1c-292.1-56.2-603.9-157.4-694.3-261.8-19.5-130.8-34.6-312.6-40.6-517.6,165.8,82.5,347.2,150.9,563.5,187.9q85.8,295.8,171.4,591.5Z"/><path class="cls-7" d="M988,2828.5c-178.4-53.5-329.5-119.7-388-187.2-19.5-130.8-34.6-312.6-40.6-517.6a2232.7,2232.7,0,0,0,212.7,93c49,210.2,118.9,413.2,215.9,611.8Z"/><path class="cls-2" d="M2175.57,2836.9c126.7-27.7,252.6-63.1,357.7-102.7,98.6-37.2,177.1-76.9,217.4-115.7,8.9-62.6,16.8-136.2,23.2-217.9,4.9-62.1,8.9-127.8,11.8-196a2129.92,2129.92,0,0,1-202.6,77.7c-86.5,28.3-175.9,52.1-267.6,72.3Zm393.2-8.4c-133.1,50.2-297.2,93.7-455.3,124.1v-.1a50.35,50.35,0,0,1-57.8-63.5l170.6-589.2a50.27,50.27,0,0,1,38.8-37.6c98.1-20.7,194-45.6,286.7-75.9,91.7-30.1,179.7-65.2,262.7-106.6a50.3,50.3,0,0,1,74.6,45.5c-3,102.7-8.1,198-14.7,282.9-7.1,91.2-16.1,172.7-26.2,240.6h-.1a51.33,51.33,0,0,1-11.7,25.7c-48.2,55.5-145.9,108.3-267.6,154.1Z"/><path class="cls-7" d="M2104,2903.1c292.1-56.2,603.8-157.4,694.3-261.8,19.5-130.8,34.6-312.6,40.6-517.6-172.9,86.5-363.2,145.6-563.5,187.9Z"/><path class="cls-6" d="M2439.27,2819.6c165.7-51.9,303.7-114.5,359-178.3,19.5-130.8,34.6-312.6,40.6-517.6a1883,1883,0,0,1-185.1,80.2c-48.3,211.6-117.7,416-214.5,615.7Z"/><path class="cls-11" d="M1320.47,1095.6c103.4,0,187.3,140.6,187.3,314.2,0,88.3-21.7,168-56.6,225.1-35.2-23.6-76.4-37.2-120.3-37.2-50,0-96.3,17.6-134.5,47.4-38.8-57.5-63.2-141.6-63.2-235.3-.1-173.6,83.8-314.2,187.3-314.2Z"/><path class="cls-11" d="M2051.87,1095.6c103.5,0,187.3,140.6,187.3,314.2,0,88.3-21.7,168-56.6,225.1-35.2-23.6-76.4-37.2-120.3-37.2-50,0-96.3,17.6-134.5,47.4-38.8-57.5-63.2-141.6-63.2-235.3-.1-173.6,83.8-314.2,187.3-314.2Z"/><path class="cls-2" d="M1699.17,2715.5l147.9-235.5,147.8-235.3h-591.4l147.8,235.3,147.9,235.5Zm217.7-198.3L1734.27,2808a38.57,38.57,0,0,1-15,13.9c-19.3,10.3-44,4.2-55.2-13.5l-182.9-291.2-181.5-288.9a34.64,34.64,0,0,1-6.9-20.8c0-20.6,18.1-37.2,40.5-37.2h731.5v.1a43.15,43.15,0,0,1,20.2,5c19.3,10.3,25.9,33,14.7,50.7l-182.8,291.1Z"/><polygon class="cls-11" points="1699.17 2789.7 1881.97 2498.6 2064.87 2207.4 1699.17 2207.4 1333.47 2207.4 1516.27 2498.6 1699.17 2789.7"/><polygon class="cls-12" points="1333.47 2207.4 1516.27 2498.6 1699.17 2789.7 1699.17 2643.9 1479.37 2294 1333.47 2207.4"/><polygon class="cls-13" points="2064.87 2207.4 1699.17 2207.4 1333.47 2207.4 1479.37 2294 1918.87 2294 2064.87 2207.4"/><path class="cls-2" d="M1699.17,2588.3l83.7-133.3,83.6-133.1h-334.6l83.6,133.1Zm136-105.4-109.7,174.7a28.75,28.75,0,0,1-11.2,10.4c-14.5,7.7-33,3.2-41.4-10.1l-109.9-175-108.9-173.3a25.89,25.89,0,0,1-5.2-15.6c0-15.4,13.6-27.9,30.3-27.9h439.6v.1a32.31,32.31,0,0,1,15.2,3.8c14.5,7.7,19.4,24.8,11,38.1l-109.8,174.8Z"/><polygon class="cls-11" points="1699.17 2643.9 1808.97 2469 1918.87 2294 1699.17 2294 1479.37 2294 1589.27 2469 1699.17 2643.9"/><polygon class="cls-14" points="1479.37 2294 1918.87 2294 1699.17 2643.9 1852.97 2321.5 1479.37 2294"/><path class="cls-2" d="M579.17,1498.5l105.5,554.9c19.1,101.3-47.5,199-148.8,218.1s-198.8-47.4-218-148.6L212.37,1568c-18.5-101.4,48.7-198.7,150.1-217.2A186.73,186.73,0,0,1,579.17,1498.5Zm6.4,573.5-105.5-554.9a85.84,85.84,0,0,0-168.6,32.4L417,2104.4a85.84,85.84,0,0,0,168.6-32.4Z"/><path class="cls-3" d="M529.57,1507.8l105.5,554.9c14,73.6-34.8,145.3-108.4,159.3h0c-73.6,14-145.3-34.8-159.3-108.4l-105.5-554.9c-14-73.6,34.8-145.3,108.4-159.3h0c73.6-14,145.3,34.8,159.3,108.4Z"/><path class="cls-4" d="M567.67,2207.1a133.72,133.72,0,0,1-41,14.9h0c-73.6,14-145.3-34.8-159.3-108.4l-105.5-554.9a135.88,135.88,0,0,1,21.3-102,133.72,133.72,0,0,1,41-14.9h0c73.6-14,145.3,34.8,159.3,108.4L589,2105.1a135.44,135.44,0,0,1-21.3,102Z"/><path class="cls-2" d="M331.17,2580.5l413.5-78.6a22.87,22.87,0,0,0,14.6-9.8l1-1.4a23.21,23.21,0,0,0,2.6-15.9h0a22.63,22.63,0,0,0-9.6-14.5,23,23,0,0,0-17.5-3.6l-413.5,78.6a22.63,22.63,0,0,0-14.5,9.6,23,23,0,0,0-3.6,17.5v.1a22.9,22.9,0,0,0,27,18Zm432.1,20.9L349.77,2680a124.73,124.73,0,0,1-144.1-94.1,49.3,49.3,0,0,1-1.8-9.3,124.72,124.72,0,0,1,99.8-140.8l413.5-78.6a124.73,124.73,0,0,1,144.1,94.1,49.3,49.3,0,0,1,1.8,9.3,123.73,123.73,0,0,1-17.9,84.9c-.7,1.2-1.5,2.5-2.3,3.7a124.27,124.27,0,0,1-79.6,52.2Z"/><path class="cls-3" d="M340.47,2630.3,754,2551.7a73.84,73.84,0,0,0,58.6-86.1h0a73.84,73.84,0,0,0-86.1-58.6L313,2485.7a73.84,73.84,0,0,0-58.6,86.1h0a73.8,73.8,0,0,0,86.1,58.5Z"/><path class="cls-4" d="M340.47,2630.3l345-65.6a73.84,73.84,0,0,0,58.6-86.1h0A73.84,73.84,0,0,0,658,2420l-345,65.6a73.84,73.84,0,0,0-58.6,86.1h0a73.92,73.92,0,0,0,86.1,58.6Z"/><path class="cls-2" d="M209,1844l457.8-87.1h.1a150.77,150.77,0,0,1,175.5,119.7v.1a150.11,150.11,0,0,1-23.5,112.4l-2.4,3.3a150,150,0,0,1-93.7,59.8l-458,87.1a149.77,149.77,0,0,1-112.3-23.5l-.1-.1-.1.1a149.83,149.83,0,0,1-63.1-96.2v-.2c-15.1-81.5,38.4-159.9,119.8-175.4Zm473,12.6-450.9,85.7a59.81,59.81,0,0,1-6.1,1.2,50,50,0,0,0-37.3,54.9,42.09,42.09,0,0,1,.9,4.9,49,49,0,0,0,20.4,29.1v.1a49.23,49.23,0,0,0,37.1,7.6l458-87.1a49.09,49.09,0,0,0,30.1-18.8c.4-.7.9-1.4,1.4-2.1a49.64,49.64,0,0,0,8.2-34.5,40.14,40.14,0,0,1-.9-5,49.14,49.14,0,0,0-20.2-29,50.17,50.17,0,0,0-34.7-8.2,23.66,23.66,0,0,1-6,1.2Z"/><path class="cls-3" d="M218.17,1893.5l458-87.1c54-10.2,106.5,25.5,116.8,79.5h0c10.2,54-25.5,106.5-79.5,116.8l-457.9,87.1c-54,10.2-106.5-25.5-116.8-79.5h0c-10.4-54,25.4-106.5,79.4-116.8Z"/><path class="cls-4" d="M218.17,1893.5l387.6-73.7c54-10.3,106.5,25.5,116.8,79.4h0c10.3,54-25.5,106.5-79.4,116.8l-387.6,73.7c-54,10.3-106.5-25.5-116.8-79.5h0c-10.4-53.9,25.4-106.4,79.4-116.7Z"/><path class="cls-2" d="M283.47,2236.5l458-87.1A150.36,150.36,0,0,1,854,2172.9l3.3,2.4a149.57,149.57,0,0,1,36.3,206l-.1.1.1.1a149.83,149.83,0,0,1-96.2,63.1l-457.9,87.1a149.38,149.38,0,0,1-112.3-23.6l-.1-.1-.1.1c-68.5-46.4-86.3-139.5-39.9-208l.3-.5.1-.1-.1-.1a150.35,150.35,0,0,1,96.1-62.9Zm476.5,12-457.9,87.1a49.33,49.33,0,0,0-31.5,20.9l-.1-.1a49.29,49.29,0,0,0,12.9,68.4l.3.2v.1a49.72,49.72,0,0,0,37.1,7.7l458-87.1a49.12,49.12,0,0,0,31.4-20.9l.1.1a49.28,49.28,0,0,0-11.1-67.2c-.7-.4-1.4-.9-2.1-1.4a48.71,48.71,0,0,0-37.1-7.8Z"/><path class="cls-3" d="M292.77,2286l458-87.1c54-10.3,106.5,25.5,116.8,79.4h0c10.3,54-25.5,106.5-79.5,116.8l-458,87.1c-54,10.3-106.5-25.5-116.8-79.5h0c-10.2-53.9,25.6-106.4,79.5-116.7Z"/><path class="cls-4" d="M292.77,2286l385.8-73.4c54-10.2,106.5,25.5,116.8,79.5h0c10.3,54-25.5,106.5-79.5,116.8l-385.8,73.4c-54,10.3-106.5-25.5-116.8-79.5h0c-10.2-54,25.5-106.5,79.5-116.8Z"/><path class="cls-2" d="M356.67,2222.6l457.8-87.1h.1a49,49,0,0,0,31.3-20.7l.1-.1h-.1a49.19,49.19,0,0,0,7.7-37.1v-.1a49.12,49.12,0,0,0-20.9-31.4c-.6-.4-1.2-.9-1.8-1.3a49.38,49.38,0,0,0-35.2-6.4l-457.9,87.1a49.58,49.58,0,0,0-31.5,20.9c-.4.6-.9,1.2-1.3,1.8a48.88,48.88,0,0,0-6.4,35.2v.1a49,49,0,0,0,20.7,31.3l.1.1.1-.1a49.68,49.68,0,0,0,37.1,7.8Zm473,12.6L378.77,2321a42.19,42.19,0,0,1-7.9,1.4,149.83,149.83,0,0,1-108.3-24.2l.1-.1a149.72,149.72,0,0,1-62.2-91.4,52.61,52.61,0,0,1-1.7-8.8,149.33,149.33,0,0,1,22-104.8c.7-1.2,1.4-2.4,2.2-3.5a149.83,149.83,0,0,1,96.2-63.1l457.9-87.1a149.44,149.44,0,0,1,109,21.3c1.2.7,2.4,1.4,3.5,2.2a150.16,150.16,0,0,1,62.2,91.6,52.61,52.61,0,0,1,1.7,8.8,149.41,149.41,0,0,1-24.3,108.3l-.1-.1a150,150,0,0,1-91.4,62.2,53.73,53.73,0,0,1-8,1.5Z"/><path class="cls-3" d="M365.77,2272.1l458-87c54-10.3,89.7-62.8,79.5-116.8h0c-10.3-54-62.8-89.7-116.8-79.5l-458,87.1c-54,10.3-89.7,62.8-79.5,116.8h0c10.3,54,62.8,89.7,116.8,79.4Z"/><path class="cls-4" d="M365.77,2272.2,748,2199.5c54-10.3,89.7-62.8,79.5-116.8h0c-10.3-54-62.8-89.7-116.8-79.5l-382.2,72.7c-54,10.3-89.7,62.8-79.5,116.8h0c10.3,54,62.8,89.7,116.8,79.5Z"/><path class="cls-2" d="M374.67,1822.3l150,836.8a50.35,50.35,0,0,1-40.6,58.4h0a51.11,51.11,0,0,1-10.3.8,725.18,725.18,0,0,1-161.4-19.8c-53.4-12.9-100.9-31.5-136.5-53.6a49.71,49.71,0,0,1-13-11.6h0c-77.5-98.8-132.1-216.1-153.2-340.6-19.6-115.6-10.3-237.3,36.2-356.3a49.74,49.74,0,0,1,17.3-22.4c36.1-29.3,73.7-56.3,114.2-78.8,42.3-23.5,87.5-42,137.1-53a50.39,50.39,0,0,1,60,38.3l.2,1.8Zm39.6,791.8-128.8-718.7a451.2,451.2,0,0,0-59.4,27.7c-31.6,17.6-61.8,38.8-91.1,62.1-35.5,97.2-42,196.4-26,290.8,17.7,104.3,63,203.2,127.5,287.6,26.1,14.8,60.4,27.6,99.5,37a580,580,0,0,0,78.3,13.5Z"/><path class="cls-6" d="M325.07,1831.2l150,836.8c-107.1-1-211.3-27.9-272.7-66C63,2424.3,3,2184,92.57,1954.6c69.5-56.6,143.8-103.8,232.5-123.4Z"/><path class="cls-7" d="M432.37,2666.2c-91.5-6.6-176.8-31.2-229.9-64.2-132.9-169.5-193.7-396-121.2-615.6,63.2-48.7,131-88.4,210.3-105.9Z"/><path class="cls-2" d="M108.07,2526.7a738.38,738.38,0,0,1-76.3-193.5,669.76,669.76,0,0,1-16.4-202.5,36.71,36.71,0,0,1,39.2-34l1.7.2h0l178.5,21.3a36.74,36.74,0,0,1,32.1,32.1l44.7,267a36.56,36.56,0,0,1-16.8,37.2l-134.3,86.3a36.79,36.79,0,0,1-50.7-11,18,18,0,0,1-1.7-3.1Zm-4.9-210.1a655.91,655.91,0,0,0,51.1,141.1l81-52.1-36.5-217.8L87,2174.4a607.67,607.67,0,0,0,16.2,142.2Z"/><path class="cls-7" d="M140.67,2510.1c-64.4-113.4-98.5-243.7-88.7-376.7l178.5,21.3q22.5,134.4,45,268.7Z"/></g></svg>