<svg id="Layer_1" data-name="Layer 1" xmlns="http://www.w3.org/2000/svg" viewBox="0 0 3642.64 3574.32"><defs><style>.cls-1,.cls-8{fill:#001438;}.cls-2{fill:#12b8ff;}.cls-10,.cls-11,.cls-12,.cls-13,.cls-2,.cls-3,.cls-4,.cls-5,.cls-6,.cls-7,.cls-8,.cls-9{fill-rule:evenodd;}.cls-3{fill:#0988f0;}.cls-4{fill:#0067c7;}.cls-5{fill:#fff;}.cls-6{fill:#96d0ff;}.cls-7{fill:#c9e7ff;}.cls-9{fill:#00264a;}.cls-10{fill:#ff0;}.cls-11{fill:#e8ae00;}.cls-12{fill:#fc0;}.cls-13{fill:#ffffb2;}.cls-14{fill:#fff62e;}</style></defs><path class="cls-1" d="M2608.49,2852.46q11.36-.15,21.42.23c83.35,3.33,157.72,34,211.87,82.27,56.49,50.35,91.22,119.82,92.45,198.19q.09,6.39-.25,15.09h.05c-3.39,85.22-45.72,162.32-111.36,218-62.71,53.19-147,86.84-238.16,88.26-7.55.12-14.7.05-21.38-.23-83.37-3.31-157.73-34-211.88-82.25-56.52-50.37-91.24-119.86-92.45-198.2-.08-5,0-10,.19-15.06,3.4-85.26,45.72-162.33,111.37-218.06,62.67-53.21,147-86.85,238.13-88.28Zm12.49,100.2c-5.81-.24-11.32-.3-16.45-.23-69.72,1.09-133.21,25.94-179.52,65.23-43.32,36.8-71.21,86.25-73.34,139.68-.11,3-.13,6.15-.12,9.25.79,49.12,23.78,93.77,61.2,127.1,39.83,35.5,95.67,58.12,159.3,60.67,5.81.23,11.31.31,16.45.23,69.67-1.1,133.17-26,179.49-65.25,43.34-36.78,71.2-86.25,73.36-139.65l.06-.18c.07-2.31.09-5.35,0-9.1-.76-49.1-23.74-93.76-61.18-127.12-39.81-35.46-95.69-58.11-159.28-60.63Z"/><path class="cls-2" d="M2606.53,2902.44c160.8-2.5,286.69,107.86,281.15,246.5s-140.37,253.11-301.17,255.62S2299.81,3296.7,2305.33,3158s140.35-253.08,301.2-255.6Z"/><path class="cls-3" d="M2605.07,3403.73c-6.14.43-12.33.73-18.56.83-160.81,2.51-286.7-107.86-281.18-246.52,4.34-109.41,89.27-203.72,203.89-239.88,6.15-.44,12.36-.71,18.57-.83,160.83-2.48,286.72,107.88,281.17,246.53-4.34,109.41-89.24,203.74-203.89,239.87Z"/><path class="cls-4" d="M2306.39,3190a217.94,217.94,0,0,1-1.06-31.92c4.34-109.41,89.27-203.72,203.89-239.88,6.15-.44,12.36-.71,18.57-.83,100-1.54,186.37,40.49,236.17,105.8-30.14,116.6-152,206.3-294.18,208.52-61.33,1-117.58-14.52-163.39-41.69Z"/><path class="cls-1" d="M2490,3072.44c28,7.08,70.73,5.84,111.85-4.75,35.66-9.2,67.87-25.16,83.3-48.27a691.69,691.69,0,0,0,20.47-108.9,771.11,771.11,0,0,0,3-121.5c-5.05-97.51-27.47-195.68-62.63-290.95-33.23-90-77.88-177.57-130.15-259.74-122.26,70-238,129.19-336.35,169.51-43.89,18-84.8,32.3-121.91,42.23a1615,1615,0,0,1,227.4,248.53Q2411,2869.69,2490,3072.44Zm137.24,92.81c-71.05,18.29-151.35,14.19-196.94-7.85a50.22,50.22,0,0,1-26.56-28.35q-75.74-202.12-199.81-370.64-123.37-167.26-295.54-301.56a50.47,50.47,0,0,1,34.06-92.13c41.23,4.94,111-14.2,198.92-50.22,104.44-42.8,230.95-108.86,364.8-187.14l0,0a50.41,50.41,0,0,1,67.22,15.09c67.74,99.69,125.53,208.21,167.15,320.91,38.57,104.55,63.17,212.64,68.77,320.53a869.68,869.68,0,0,1-3.63,137.37,795.29,795.29,0,0,1-25.08,131.53l-.11,0a50.84,50.84,0,0,1-4.29,10.44c-29.1,53.08-87.1,86-149,102Z"/><path class="cls-5" d="M2450.92,3111.44C2515,3144.15,2684,3126.61,2732,3039c23.25-82.55,31.32-167.42,26.89-252.54-11.13-214.3-101.35-430.37-227.23-615.64h0c-256.89,150.26-488.76,256.78-595.36,244,239.65,185.82,410.42,418.52,514.63,696.63Z"/><path class="cls-6" d="M2450.92,3111.44c47.45,24.22,152.36,20.89,223.15-18,41.23-256-88.16-837-378.55-935.07-210.17,115.21-268.58,267.34-359.23,256.44,239.66,185.8,410.42,418.52,514.63,696.63Z"/><path class="cls-1" d="M2354.58,2971.68c-9.87-3.85-14.46-15.34-10.21-25.62s15.67-15.52,25.54-11.67c66.35,25.78,138.85,17.93,205.84-14.1,71.59-34.23,136.87-95.92,182-173.87,5.61-9.6,17.56-13.08,26.71-7.78s12,17.42,6.4,27c-49.37,85.21-121.09,152.85-200,190.57-76.34,36.51-159.52,45.25-236.25,15.45Z"/><path class="cls-1" d="M2248.34,2793.2c-10.4-2.25-16.68-12.78-14-23.52s13.26-17.65,23.65-15.41c71.1,15.17,170.48-10.84,258.77-57s164.6-112,188.67-175.95c4-10.35,15.24-15.88,25.19-12.33s14.87,14.89,10.9,25.24c-27.81,73.89-111.81,147.77-208.41,198.3-95.52,50-204.64,77.82-284.77,60.71Z"/><path class="cls-1" d="M2088.38,2598.16c-10.55-1.53-17.51-11.57-15.53-22.44s12.09-18.46,22.64-16.93c79,11.12,181.19-20.76,274.7-76.88,93.71-56.25,177.9-136.39,220.84-221.74,5-9.92,16.78-14.15,26.26-9.45s13.06,16.53,8,26.43c-46.59,92.6-136.71,178.83-236.58,238.76-100.75,60.51-212.35,94.64-300.35,82.25Z"/><path class="cls-1" d="M2607.3,524.84h29.45a73.49,73.49,0,0,1,52,22,79.22,79.22,0,0,1,23.2,56.29V1751.51a79.24,79.24,0,0,1-23.2,56.29,73.49,73.49,0,0,1-52,22H2607.3a73.64,73.64,0,0,1-52.07-22,79.33,79.33,0,0,1-23.16-56.29V603.09a79.31,79.31,0,0,1,23.16-56.29,73.64,73.64,0,0,1,52.07-22Z"/><path class="cls-5" d="M2607.3,575.36h29.45a27.81,27.81,0,0,1,27.71,27.72V1751.51a27.81,27.81,0,0,1-27.71,27.72H2607.3a27.79,27.79,0,0,1-27.72-27.72V603.08a27.79,27.79,0,0,1,27.72-27.72Z"/><path class="cls-6" d="M2664.46,728.16V1793.21a27.81,27.81,0,0,1-27.71,27.71H2607.3a27.79,27.79,0,0,1-27.72-27.71V728.16a27.78,27.78,0,0,1,27.72-27.72h29.45a27.8,27.8,0,0,1,27.71,27.72Z"/><path class="cls-1" d="M141.53,1422.38l323.87,3.4v-.17h.17a55.88,55.88,0,0,1,6.5.38,132.49,132.49,0,0,1,87.87,39.49,125,125,0,0,1,36,88.46h.19v.17a40.88,40.88,0,0,1-.24,4.59l-8.37,672.09a125.8,125.8,0,0,1-38.17,88.49A133.19,133.19,0,0,1,454.56,2357l-323.86-3.39v.17h-.17a55.62,55.62,0,0,1-6.5-.39,132.57,132.57,0,0,1-87.88-39.49A125,125,0,0,1,.2,2225.48H0v-.16a41,41,0,0,1,.25-4.6l8.37-672.08a125.68,125.68,0,0,1,38.17-88.49,133.1,133.1,0,0,1,94.74-37.77ZM465,1518.61l-324.23-3.4a29,29,0,0,0-20.37,8.65,36.24,36.24,0,0,0-10.87,25.51l-8.37,672.4c.1,1.16.15,2.36.15,3.55v.16h-.2v.37a36.3,36.3,0,0,0,10.25,25.84,29.21,29.21,0,0,0,17.45,9l1.75,0h.17v.16h.42l324.23,3.41a29,29,0,0,0,20.36-8.65,36.23,36.23,0,0,0,10.88-25.52L495,1557.66c-.1-1.17-.15-2.36-.15-3.55v-.17h.2v-.37a36.32,36.32,0,0,0-10.24-25.84,29.32,29.32,0,0,0-17.45-9l-1.75,0h-.17v-.17Z"/><path class="cls-3" d="M141.12,1468.79l324.29,3.4a81.13,81.13,0,0,1,80.05,81.92L537,2230.43a81.48,81.48,0,0,1-82.07,80.2l-324.27-3.4a81.1,81.1,0,0,1-80-81.91L59.05,1549c.57-44.58,37.5-80.68,82.07-80.21Z"/><path class="cls-4" d="M141.13,1468.79l28.25.3c-29.3,18.83-58.11,38-65.76,72.1q-4.31,346-8.63,692.08c-1.81,31.5,12.9,51.87,26,73.31-40-4.85-70.94-36.7-70.46-74.62q4.31-344.81,8.59-689.6c.52-40.93,37.41-74,82-73.57Z"/><path class="cls-1" d="M2694.19,1515.21l-324.21,3.4h-.42v.17h-.18l-1.77,0a29.24,29.24,0,0,0-17.43,9,36.24,36.24,0,0,0-10.25,25.84v.37h.21v.17c0,1.19-.07,2.38-.17,3.55l8.37,672.39a36.24,36.24,0,0,0,10.89,25.52,29,29,0,0,0,20.37,8.65l324.21-3.41h.46v-.16h.14l1.77,0a29.19,29.19,0,0,0,17.43-9,36.21,36.21,0,0,0,10.25-25.84v-.37h-.21v-.16c0-1.19.07-2.39.14-3.55l-8.34-672.4a36.34,36.34,0,0,0-10.89-25.51,28.93,28.93,0,0,0-20.37-8.65Zm-324.63-89.43,323.86-3.4a133.11,133.11,0,0,1,94.74,37.77,125.69,125.69,0,0,1,38.18,88.49l8.34,672.08a38.81,38.81,0,0,1,.25,4.6v.16h-.18a125.09,125.09,0,0,1-35.95,88.46,132.57,132.57,0,0,1-87.88,39.49,55.92,55.92,0,0,1-6.51.39h-.14v-.17l-323.9,3.39a133.18,133.18,0,0,1-94.74-37.76,125.89,125.89,0,0,1-38.18-88.49l-8.34-672.09a38.64,38.64,0,0,1-.25-4.59v-.17h.18a125.09,125.09,0,0,1,35.95-88.46,132.57,132.57,0,0,1,87.88-39.49,56.06,56.06,0,0,1,6.51-.38h.18v.17Z"/><path class="cls-3" d="M2693.81,1468.79l-324.29,3.4a81.1,81.1,0,0,0-80,81.92l8.41,676.32c.56,44.57,37.51,80.67,82.09,80.2l324.28-3.4a81.1,81.1,0,0,0,80-81.91L2775.89,1549c-.56-44.58-37.51-80.68-82.08-80.21Z"/><path class="cls-2" d="M2693.81,1468.79l-28.25.3c29.31,18.83,58.12,38,65.75,72.1q4.36,346,8.63,692.08c1.84,31.5-12.9,51.87-26,73.31,40-4.85,70.92-36.7,70.42-74.62q-4.29-344.81-8.59-689.6c-.5-40.93-37.41-74-82-73.57Z"/><path class="cls-1" d="M1409.9,3402.88c161.87,1.27,417.74-40.36,642-103,174.29-48.7,325.74-108.09,389.83-166.25,36.31-260.91,55.47-706,22-1134.57-25.21-321.83-79.8-632.34-178.74-843.38-58.8-125.43-172.91-221.91-316-289-161.91-75.9-360.27-113.84-559.62-113.84s-397.72,37.94-559.62,113.84c-143.14,67.1-257.22,163.58-316,289-99,211-153.54,521.55-178.72,843.38-33.53,428.57-14.36,873.66,21.93,1134.57,64.12,58.16,215.57,117.55,389.85,166.25,224.31,62.67,480.19,104.3,642,103Zm679.63,32.95c-235,65.65-505.92,109.27-680.17,108-174.24,1.27-445.16-42.35-680.18-108-208.27-58.21-392.81-136-468.78-219.5a70.43,70.43,0,0,1-20.1-39.88c-39.52-265.16-61.59-736.35-26.25-1187.92,26.31-336.37,84.77-663.9,192-892.58,73.88-157.58,212.24-276.45,384-357C971.58,653.86,1191,611.3,1409.36,611.3s437.76,42.56,619.3,127.66c171.77,80.54,310.14,199.41,384,357,107.19,228.68,165.67,556.21,192,892.58,35.35,451.57,13.29,922.76-26.23,1187.92l-.14,0a70.18,70.18,0,0,1-16.48,35.94c-73.64,85-260.72,164.33-472.27,223.46Z"/><path class="cls-7" d="M1409.36,3473.36c314.06,2.47,961.82-148.63,1099.13-307.15,67.66-453.83,83.22-1522.35-159.65-2040.41-277.41-591.68-1601.58-591.68-1879,0C227,1643.86,242.57,2712.38,310.22,3166.21c137.3,158.52,785.08,309.62,1099.14,307.15Z"/><path class="cls-6" d="M1118.5,708.82c-290.25,54.77-544,193.73-648.63,417C227,1643.86,242.57,2712.38,310.22,3166.21c58.48,67.53,209.57,133.67,388,187.21-141.3-289.18-225.09-587.76-270.21-904-56.59-396.69-57.23-822.74,128.65-1238.38,78.39-175.28,341.87-405.3,564.25-497.84l-2.43-4.41Z"/><path class="cls-5" d="M2149.52,3344.51c165.66-51.86,303.68-114.46,359-178.3,67.66-453.83,83.22-1522.35-159.65-2040.41-102-217.47-345.39-354.9-626.23-412.51,222.37,92.57,485.74,322.53,564.12,497.78,185.88,415.64,185.24,841.69,128.64,1238.38-44.65,313-127.2,608.67-265.85,895.06Z"/><path class="cls-1" d="M2021.41,882c-171.21-92.83-391.14-139.26-612-139.26S968.49,789.2,797.29,882l238.06,450.12,373.05-6.07h1.9l373,6.07L2021.41,882Zm-612-260.53c262.44,0,526,61.74,722.73,185.18a60.52,60.52,0,0,1,23.4,80.64l-282.43,534-.07,0a60.43,60.43,0,0,1-54.41,32.26l-409.24-6.65-405.75,6.58a60.49,60.49,0,0,1-58-32.16l-282.43-534,0,0A60.48,60.48,0,0,1,684.52,808c197-124.3,461.46-186.47,724.85-186.47Z"/><path class="cls-3" d="M2102,859.12c-373.92-236-1011.37-236-1385.23,0l282.42,534,410.18-6.67,410.2,6.67,282.43-534Z"/><path class="cls-4" d="M1118.54,708.88C970,736.91,831.05,787,716.75,859.12l47.71,90.24c107.66-98.37,237.9-186.79,356.47-236.13l-2.39-4.35Z"/><path class="cls-2" d="M2102,859.12c-108.54-68.5-239.23-117.07-379.26-145.8,112.42,46.83,235.3,128.76,339.49,221L2102,859.12Z"/><path class="cls-1" d="M2234,1331.85a137.81,137.81,0,0,1,12.73,10.78c74.87,71.87,114.78,283.18,119.95,495.69,5.12,210.29-23.16,427.27-84.67,513.49a166.68,166.68,0,0,1-14.88,18.26,50.54,50.54,0,0,1-17,11.59c-198.15,99.16-527.39,148.75-854.95,148.75-329.38,0-660.48-50.13-858.28-150.41a49.81,49.81,0,0,1-13.56-10l-.07.07a164.38,164.38,0,0,1-14.86-18.26c-61.53-86.22-89.82-303.2-84.71-513.49,5.17-212.51,45.08-423.82,120-495.69a138.47,138.47,0,0,1,15.57-12.87,50,50,0,0,1,5-3.13l0-.07c68.86-38,451.64-57.06,831-57.06s762.15,19,831,57.06a50.87,50.87,0,0,1,7.78,5.29Zm-58.72,78.29c-.78-.73-1.52-1.4-2.19-2-61.23-28.43-417.9-42.63-777.88-42.63s-716.7,14.2-777.9,42.63c-.67.59-1.39,1.26-2.15,2-55.73,53.47-86.11,238.55-90.76,430.05-4.69,193.7,17.66,388.36,67.34,458l1.34,1.8c183.68,89.6,492.09,134.42,802.13,134.42s618.47-44.82,802.13-134.42l1.34-1.8c49.67-69.63,72.05-264.29,67.35-458-4.66-191.5-35-376.57-90.75-430Z"/><path class="cls-7" d="M2200.93,1368c144.27,103,154.06,839.32,28.84,969.81-380.32,192.79-1288.86,192.79-1669.17,0C435.39,2207.32,445.18,1471,589.46,1368c121.9-67.32,1489.57-67.32,1611.47,0Z"/><path class="cls-6" d="M543.47,2314.88c-106.82-177-91.35-848.87,46-946.88,121.9-67.32,1489.57-67.32,1611.47,0-33.27-13.92-90.5,47.5-81.31,76.12-444.31,235.69-1026.95,604.3-1471.25,840-44.92-8.38-65.67-10.59-104.9,30.78Z"/><path class="cls-1" d="M2130,1421.21a130.87,130.87,0,0,1,19,16.09c63.36,63.71,97.19,236.81,101.71,410.69,4.49,172.13-19,350-70.53,425.61a150.45,150.45,0,0,1-18.09,22,50.37,50.37,0,0,1-13.55,9.53l.11.17C1975.27,2389.11,1684.43,2431,1395.19,2431s-580.07-41.93-753.45-125.77a49.26,49.26,0,0,1-17.27-13.69,155.09,155.09,0,0,1-14.24-18C558.75,2198,535.18,2020.12,539.67,1848c4.52-173.88,38.35-347,101.71-410.68a131.12,131.12,0,0,1,19-16.1,51.7,51.7,0,0,1,11.81-6c76.2-30.12,401.19-45.19,723-45.19,332.69,0,668.78,16.1,729.87,48.31a51.65,51.65,0,0,1,4.88,2.93l.07-.06Zm-55.61,77.53a24.34,24.34,0,0,0-2.65-2.3c-54-23-363.6-34.45-676.56-34.45s-622.67,11.49-676.59,34.45a29.41,29.41,0,0,0-2.61,2.3c-46.29,46.55-71.61,196.17-75.66,351.41-4.08,157,14.37,314.8,55.56,375.31.65.95,1.29,1.86,1.93,2.72,159.66,73.93,427.77,110.9,697.37,110.9s537.7-37,697.38-110.91c.64-.85,1.27-1.76,1.91-2.71,41.19-60.51,59.64-218.28,55.57-375.31-4.06-155.24-29.38-304.87-75.65-351.41Z"/><path class="cls-8" d="M2099.78,1458c125.79,85.62,134.3,698.1,25.17,806.63-331.88,160.54-1127.61,160.54-1459.52,0-109.15-108.53-100.62-721,25.15-806.63,106.3-56,1302.94-56,1409.2,0Z"/><path class="cls-9" d="M2161.47,1565.33c62.75,204.41,50.66,612.65-36.52,699.35-316.08,152.87-1052.9,160.15-1409,21.83,172.8-422.64,681.59-728.86,1282.42-728.86q82.83,0,163.15,7.68Z"/><path class="cls-1" d="M995,3477.53c-158-30.42-322.16-73.94-455.31-124.14-121.66-45.85-219.43-98.6-267.6-154.21a50.23,50.23,0,0,1-11.75-25.66h-.09c-10.13-68-19.11-149.45-26.25-240.63-6.65-84.92-11.74-180.22-14.69-282.89A50.36,50.36,0,0,1,292,2603.46l0,0c80.76,40.16,165.56,77,256.86,108.4a1854.52,1854.52,0,0,0,292.82,74.9,50.46,50.46,0,0,1,40.83,39L1052.88,3414a50.37,50.37,0,0,1-57.82,63.48l0,.09ZM575.25,3259c105,39.62,231,75,357.66,102.74L793.55,2880.62a1950.09,1950.09,0,0,1-277.46-73.25c-67.15-23.08-131.25-49.19-193.12-77.45,2.91,68,6.89,133.56,11.74,195.46,6.4,81.73,14.3,155.34,23.2,217.92,40.21,38.82,118.79,78.57,217.34,115.73Z"/><path class="cls-3" d="M1004.51,3428c-292.09-56.21-603.87-157.37-694.29-261.77-19.48-130.76-34.64-312.61-40.55-517.59,165.8,82.46,347.16,150.91,563.51,187.85L1004.51,3428Z"/><path class="cls-4" d="M698.23,3353.42c-178.45-53.52-329.53-119.7-388-187.21-19.48-130.76-34.64-312.61-40.55-517.59,67.85,33.75,138.31,65.14,212.71,93,48.89,210.13,118.8,413.19,215.85,611.8Z"/><path class="cls-1" d="M1885.8,3361.77c126.7-27.72,252.62-63.12,357.66-102.74,98.56-37.16,177.14-76.91,217.34-115.73,8.91-62.58,16.79-136.19,23.19-217.92,4.88-62.06,8.88-127.82,11.77-196a2116.78,2116.78,0,0,1-202.6,77.67c-86.47,28.32-175.91,52.11-267.65,72.31L1885.8,3361.77Zm393.18-8.38c-133.13,50.2-297.24,93.72-455.3,124.14l0-.09a50.35,50.35,0,0,1-57.8-63.48l170.64-589.19a50.47,50.47,0,0,1,38.78-37.66c98.14-20.7,194-45.6,286.71-76,91.7-30,179.66-65.21,262.73-106.64a50.38,50.38,0,0,1,74.67,45.48c-3,102.67-8.06,198-14.71,282.89-7.14,91.18-16.12,172.66-26.23,240.63h-.1a50.46,50.46,0,0,1-11.74,25.66c-48.18,55.61-145.94,108.36-267.62,154.21Z"/><path class="cls-4" d="M1814.21,3428c292.08-56.21,603.85-157.37,694.28-261.77,19.48-130.76,34.64-312.61,40.55-517.59-172.87,86.49-363.24,145.57-563.51,187.85L1814.21,3428Z"/><path class="cls-3" d="M2149.52,3344.51c165.66-51.86,303.68-114.46,359-178.3,19.48-130.76,34.64-312.61,40.55-517.59A1901.63,1901.63,0,0,1,2364,2728.86c-48.29,211.54-117.72,415.88-214.45,615.65Z"/><path class="cls-1" d="M1409.35,3240.37l147.92-235.54,147.81-235.32H1113.65l147.78,235.32,147.92,235.54ZM1627.13,3042l-182.59,290.75a38.55,38.55,0,0,1-15,13.93c-19.29,10.27-44,4.23-55.17-13.52L1191.56,3042,1010.1,2753.11a35,35,0,0,1-6.91-20.82c0-20.56,18.12-37.23,40.46-37.23h731.43v.09a43.11,43.11,0,0,1,20.21,5c19.28,10.27,25.88,33,14.71,50.75L1627.13,3042Z"/><polygon class="cls-10" points="1409.35 3314.59 1592.2 3023.45 1775.08 2732.29 1409.35 2732.29 1043.65 2732.29 1226.5 3023.45 1409.35 3314.59 1409.35 3314.59"/><polygon class="cls-11" points="1043.65 2732.29 1226.5 3023.45 1409.35 3314.59 1409.35 3168.81 1189.56 2818.82 1043.65 2732.29 1043.65 2732.29"/><polygon class="cls-12" points="1775.04 2732.29 1409.35 2732.29 1043.65 2732.29 1189.56 2818.82 1629.14 2818.82 1775.04 2732.29 1775.04 2732.29"/><path class="cls-1" d="M1409.35,3113.13l83.7-133.27,83.59-133.1H1242.06l83.59,133.1,83.7,133.27Zm136.08-105.34-109.71,174.69a28.74,28.74,0,0,1-11.2,10.41c-14.46,7.72-33,3.18-41.37-10.13l-109.89-175-108.87-173.36a26.22,26.22,0,0,1-5.17-15.61c0-15.41,13.59-27.9,30.34-27.9h439.58v.07a32.06,32.06,0,0,1,15.17,3.74c14.46,7.71,19.41,24.77,11,38.06l-109.91,175Z"/><polygon class="cls-10" points="1409.35 3168.8 1519.23 2993.82 1629.14 2818.82 1409.35 2818.82 1189.56 2818.82 1299.46 2993.82 1409.35 3168.8 1409.35 3168.8"/><polygon class="cls-13" points="1189.56 2818.82 1629.14 2818.82 1409.35 3168.81 1563.24 2846.33 1189.56 2818.82 1189.56 2818.82"/><path class="cls-10" d="M1263.43,2164.46c103.45,0,187.32-140.65,187.32-314.16,0-88.26-21.7-168-56.63-225.06-35.25,23.6-76.38,37.18-120.32,37.18-50,0-96.3-17.55-134.46-47.44-38.78,57.53-63.24,141.62-63.24,235.32C1076.1,2023.81,1160,2164.46,1263.43,2164.46Z"/><path class="cls-10" d="M1994.85,2164.46c103.48,0,187.33-140.65,187.33-314.16,0-88.26-21.7-168-56.63-225.06-35.25,23.6-76.36,37.18-120.3,37.18-50,0-96.3-17.55-134.48-47.44-38.79,57.53-63.25,141.62-63.25,235.32,0,173.51,83.89,314.16,187.33,314.16Z"/><path class="cls-1" d="M402.85,3440.63q7.08,8.89,13.76,16.41c55.47,62.32,126.38,100.32,198,111.57,74.76,11.71,150.49-5.52,211.85-54.29q5-4,11.5-9.76l0,0c63.73-56.69,96.46-138.33,97.88-224.42,1.33-82.21-26.17-168.75-82.9-240.08-4.69-5.91-9.28-11.39-13.73-16.37-55.46-62.35-126.38-100.34-198-111.59-74.8-11.73-150.54,5.52-211.85,54.29-3.88,3.08-7.75,6.32-11.53,9.71-63.74,56.73-96.46,138.33-97.88,224.44-1.37,82.2,26.17,168.75,82.86,240.06Zm85.36-53.91c-3.86-4.35-7.4-8.56-10.6-12.57-43.4-54.58-64.47-119.42-63.49-180.14,1-56.83,21.49-109.77,61.43-145.32,2.28-2,4.67-4,7.07-6,38.47-30.56,87.57-41.12,137.08-33.34,52.7,8.26,105.62,37.07,148,84.63q5.8,6.53,10.61,12.57c43.37,54.55,64.44,119.41,63.45,180.13-.92,56.85-21.48,109.77-61.39,145.31l-.1.17c-1.74,1.51-4.07,3.46-7,5.79-38.44,30.57-87.54,41.14-137.08,33.37-52.67-8.27-105.62-37.09-147.93-84.64Z"/><path class="cls-2" d="M440.24,3407.41c100.09,125.87,265.27,153.16,368.91,60.91s106.57-269.09,6.48-395-265.27-153.16-368.94-60.93-106.56,269.06-6.45,395Z"/><path class="cls-3" d="M826.77,3088.22q-5.34-7.53-11.14-14.87c-100.09-125.89-265.27-153.16-368.94-60.93-81.82,72.78-100.83,198.27-56.05,309.81,3.56,5,7.29,10,11.14,14.87,100.13,125.89,265.3,153.17,369,60.91,81.82-72.78,100.86-198.25,56-309.79Z"/><path class="cls-4" d="M472,2993a218.54,218.54,0,0,0-25.34,19.42c-81.82,72.78-100.83,198.27-56.05,309.81,3.56,5,7.29,10,11.14,14.87,62.24,78.25,149.54,118.36,231.63,115.42,71-97.28,63-248.39-25.49-359.69-38.16-48-85.82-81.66-135.89-99.83Z"/><path class="cls-1" d="M798.13,2386.72,1179,2803.84a186.67,186.67,0,0,1-275.9,251.53L522.23,2638.26a186.68,186.68,0,0,1,275.9-251.54Zm306.22,484.88L723.49,2454.49a85.86,85.86,0,0,0-126.61,116L977.73,2987.6a85.86,85.86,0,0,0,126.62-116Z"/><path class="cls-5" d="M760.81,2420.61l380.86,417.1c50.54,55.36,46.6,142-8.74,192.52h0c-55.35,50.54-142,46.61-192.51-8.75l-380.87-417.1c-50.54-55.36-46.6-142,8.75-192.52h0c55.34-50.53,142-46.59,192.51,8.75Z"/><path class="cls-6" d="M1160,2996.05a134.9,134.9,0,0,1-27,34.18h0c-55.35,50.54-142,46.61-192.5-8.74L559.55,2604.38a135.83,135.83,0,0,1-35.34-98,135.08,135.08,0,0,1,27-34.19h0c55.34-50.53,142-46.6,192.5,8.74l380.86,417.13a135.78,135.78,0,0,1,35.35,98Z"/><path class="cls-1" d="M1154.41,3438.06l310.86-283.86a22.86,22.86,0,0,0,7.28-16l.11-1.66a23.37,23.37,0,0,0-6.12-15l0,0a22.74,22.74,0,0,0-15.77-7.36,23.31,23.31,0,0,0-16.79,6.11l-310.87,283.84a22.65,22.65,0,0,0-7.37,15.79,23.34,23.34,0,0,0,6.1,16.8l0,0a22.78,22.78,0,0,0,15.76,7.34,23.34,23.34,0,0,0,16.8-6.09Zm378.88-208.94L1222.42,3513a124.7,124.7,0,0,1-172-4.5,50.88,50.88,0,0,1-6.42-7,124.74,124.74,0,0,1,11.1-172.22l310.87-283.84a124.7,124.7,0,0,1,172,4.5,51.11,51.11,0,0,1,6.43,7,123.54,123.54,0,0,1,29.28,81.68c0,1.44,0,2.89,0,4.38a124.07,124.07,0,0,1-40.38,86.14Z"/><path class="cls-5" d="M1188.41,3475.51l310.88-283.84a73.9,73.9,0,0,0,4.72-104.06h0a73.87,73.87,0,0,0-104.06-4.72l-310.85,283.85a73.85,73.85,0,0,0-4.73,104.05h0a73.86,73.86,0,0,0,104.05,4.73Z"/><path class="cls-6" d="M1188.41,3475.51l259.33-236.79a73.87,73.87,0,0,0,4.74-104.07h0a73.86,73.86,0,0,0-104-4.7l-259.32,236.79a73.85,73.85,0,0,0-4.74,104h0a73.87,73.87,0,0,0,104.05,4.73Z"/><path class="cls-1" d="M846.22,2749.36l445.17-377.75.1-.07c39.34-33.35,87.32-51.5,132.92-53.87,45.77-2.38,89.15,11.11,119,41.06l.08.08c29.77,29.89,40.74,70.72,34.39,112.47-.22,1.5-.52,3-.87,4.47-7.36,40.37-30.78,81.24-68.86,113.55l-445.3,377.86c-39.36,33.41-87.38,51.57-133,54h-.2v.13c-45.58,2.36-88.89-11.19-118.84-41.2l-.17-.17C781,2950,770,2909.2,776.36,2867.5s30.09-84.38,69.72-118l.14-.12Zm514.45-301.81-438.42,372c-1.86,1.77-3.83,3.47-5.9,5.08-11.46,10.58-18.41,23.78-20.38,36.79s1.11,25.51,9.56,35.15a42.88,42.88,0,0,1,3.62,3.64c9.6,8.52,23.07,12.35,37.3,11.61v.12a75.2,75.2,0,0,0,43.93-18l445.29-377.85c12.14-10.3,19.72-23.24,22.32-36.08.1-.9.2-1.8.34-2.72,2-12.86-1.09-25.48-9.53-35.12a40.16,40.16,0,0,1-3.67-3.71c-9.67-8.58-23-12.44-37-11.7a74.9,74.9,0,0,0-41.59,15.9,74.48,74.48,0,0,1-5.81,4.84Z"/><path class="cls-5" d="M882.12,2786.46l443.54-376.38c52.27-44.34,127.37-48.24,166.89-8.66h0c39.51,39.6,29.08,108.27-23.19,152.63l-443.52,376.36c-52.27,44.34-127.37,48.25-166.89,8.67h0c-39.53-39.58-29.1-108.27,23.17-152.61Z"/><path class="cls-6" d="M875.41,2788.87l376.89-319.81c52.48-44.54,127.87-48.45,167.54-8.7h0c39.69,39.75,29.21,108.69-23.26,153.22L1019.7,2933.39c-52.49,44.53-127.88,48.45-167.56,8.7h0c-39.69-39.74-29.21-108.68,23.27-153.21Z"/><path class="cls-1" d="M933.4,3170.1l344.25-314.33a149.81,149.81,0,0,1,108.12-38.95c1.37.07,2.73.19,4.08.35a149.52,149.52,0,0,1,139,156.39v.17l.11,0a150,150,0,0,1-48.79,104.19l-344.24,314.32a149.63,149.63,0,0,1-108,38.83h-.16v.1a149.78,149.78,0,0,1-143-156.75v-.16h-.11A150,150,0,0,1,933.4,3170.1Zm412-239.69-344.24,314.32A49.24,49.24,0,0,0,985.35,3279h-.1a49.2,49.2,0,0,0,47.23,51.47v.09a49.59,49.59,0,0,0,35.64-12.94l344.24-314.32a49.25,49.25,0,0,0,15.81-34.28h.11a49.59,49.59,0,0,0-13-35.64,49,49,0,0,0-31.76-15.76q-1.26,0-2.52-.06a49.39,49.39,0,0,0-35.63,12.85Z"/><path class="cls-5" d="M967.29,3207.41l344.24-314.32c40.56-37.05,104.06-34.16,141.11,6.4h0c37,40.58,34.16,104.08-6.4,141.12L1102,3354.92c-40.56,37.06-104.07,34.16-141.1-6.4h0c-37-40.56-34.17-104.06,6.4-141.11Z"/><path class="cls-6" d="M967.29,3207.41l290-264.81c40.57-37,104.06-34.14,141.11,6.43h0c37,40.57,34.16,104.06-6.41,141.11l-290,264.79c-40.55,37.05-104.06,34.15-141.09-6.41h0c-37-40.56-34.17-104.06,6.4-141.11Z"/><path class="cls-1" d="M988.38,3119.89l344.14-314.24.09-.06a49.06,49.06,0,0,0,15.83-34v-.16h-.1a49.4,49.4,0,0,0-12.84-35.62l-.08-.09a49.19,49.19,0,0,0-34.2-15.75c-.76,0-1.51-.1-2.27-.16a49.59,49.59,0,0,0-33.37,13L921.36,3047.1a49.25,49.25,0,0,0-15.83,34.26c0,.77-.09,1.51-.16,2.26a49.67,49.67,0,0,0,13,33.38l.07.09a49.11,49.11,0,0,0,34,15.84h.15v-.1A49.45,49.45,0,0,0,988.27,3120l.11-.09Zm409.37-237.29-338.9,309.46a47.64,47.64,0,0,1-6,5.35,149.76,149.76,0,0,1-105,36.16v-.12A150.18,150.18,0,0,1,847,3188.26a50.59,50.59,0,0,1-6.07-6.64,149.49,149.49,0,0,1-36.18-100.81c0-1.37,0-2.76,0-4.16a150,150,0,0,1,48.81-104.19l344.24-314.33a149.39,149.39,0,0,1,104-39c1.36,0,2.75,0,4.15,0a150,150,0,0,1,100.93,45.34,49.75,49.75,0,0,1,6.06,6.63,149.79,149.79,0,0,1,36.16,104.95H1449a150.26,150.26,0,0,1-45.2,100.92,50.84,50.84,0,0,1-6,5.58Z"/><path class="cls-5" d="M1022.17,3157.29,1366.41,2843c40.55-37.06,43.45-100.55,6.41-141.12h0c-37-40.57-100.53-43.45-141.1-6.4L887.47,3009.78c-40.57,37-43.45,100.54-6.41,141.11h0c37,40.56,100.54,43.45,141.11,6.4Z"/><path class="cls-6" d="M1022.17,3157.31,1309.45,2895c40.57-37,43.45-100.55,6.41-141.11h0c-37-40.58-100.55-43.46-141.11-6.42L887.47,3009.78c-40.57,37-43.45,100.54-6.41,141.11h0c37,40.56,100.53,43.45,141.1,6.42Z"/><path class="cls-1" d="M793.8,2769.64l566.58,633.83a50.32,50.32,0,0,1-4,71.07,49,49,0,0,1-8.38,6.07,727.38,727.38,0,0,1-147.83,67.8c-52.26,17-102.44,26.05-144.34,25.9a50,50,0,0,1-17.19-3.09h0c-117.82-43.48-225.82-114.68-309.14-209.67-77.28-88.13-133.23-196.61-156.06-322.35a50.08,50.08,0,0,1,3-28.17c15.39-43.87,33.25-86.58,55.91-127,23.68-42.22,52.48-81.69,88.93-117a50.34,50.34,0,0,1,71.18,1.13l1.37,1.47Zm449,653.38L756.19,2878.63a440.2,440.2,0,0,0-36,54.68c-17.68,31.53-32.21,65.46-45,100.7,20.79,101.37,67.19,189.23,130.34,261.25,69.77,79.55,160.2,139.94,259.41,178,30-1.08,65.9-8.22,104.08-20.65a611.3,611.3,0,0,0,73.82-29.61Z"/><path class="cls-3" d="M756.27,2803.19,1322.86,3437c-91.72,55.38-194.55,87.12-266.78,86.85-211.86-78.21-389-251.37-433-493.66,29.47-84.62,67.95-163.83,133.2-227Z"/><path class="cls-4" d="M1285.51,3458c-81.36,42.35-166.86,66.14-229.43,65.92C854,3449.27,683.51,3288.29,630,3063.3c28.24-74.56,65.17-143.91,123.54-200.44l532,595.09Z"/><path class="cls-1" d="M936.24,3509.25c-61-33.65-117.33-75.44-166.43-124.73a668.8,668.8,0,0,1-120.16-163.84,36.69,36.69,0,0,1,15.52-49.49l1.55-.75v0L829.84,3095a36.7,36.7,0,0,1,44.21,10.51l178.1,203.87a36.64,36.64,0,0,1,5.14,40.54l-69,143.9A36.66,36.66,0,0,1,939.38,3511a33.82,33.82,0,0,1-3.14-1.71ZM821.91,3332.87a657.21,657.21,0,0,0,117.5,93.34l41.65-86.84L835.79,3173.09l-102.23,47.25a601.68,601.68,0,0,0,88.35,112.53Z"/><path class="cls-4" d="M955.27,3477.93c-114.35-62.76-211.72-155.83-273.11-274.24q81.57-37.7,163.13-75.43l179.25,205.19q-34.65,72.23-69.27,144.48Z"/><path class="cls-14" d="M3121,925.82l39.36-98.21a390.11,390.11,0,0,1,79.6-64.37c29.28-17.84,50.94-25.64,78.91-37.62a1082.83,1082.83,0,0,0,133.73-69c24.78-12.4,69.59-39.18,105-90.5a274.72,274.72,0,0,0,41.45-94.22,294.62,294.62,0,0,0,4.55-80.75A299.34,299.34,0,0,0,3564,265.72a390.81,390.81,0,0,0-174.78-164.58,694.29,694.29,0,0,0-230.68-64.65,435.85,435.85,0,0,0-166.8,28L2926.88,97.7,2856,156.8q-30.79,49.65-61.61,99.28l166.11,69.66a282.84,282.84,0,0,1,121.16-119.55,230,230,0,0,1,119.17-19.36,302.09,302.09,0,0,1,138.76,50.55,195.19,195.19,0,0,1,57.83,65.38,166.55,166.55,0,0,1,19.66,114.56,163.93,163.93,0,0,1-26.45,64.52,161.66,161.66,0,0,1-29.27,32A673.91,673.91,0,0,1,3300,550.54a674,674,0,0,1-64.59,29.84l-133.83,66.24-63.93,50.51-34.53,47.39q-24.69,67.22-49.37,134.41Z"/><polyline class="cls-14" points="2945.42 998.86 2905.75 1140.43 3047.32 1180.11 3086.99 1038.54 2945.42 998.86"/><path d="M2864,1148.49l49.94-178.22a19,19,0,0,1,23.46-13.19L3115.58,1007a19,19,0,0,1,13.19,23.45l-49.94,178.22a19,19,0,0,1-23.46,13.18l-178.21-49.94a19,19,0,0,1-13.19-23.45Zm81.45-149.63-39.67,141.57,141.57,39.68L3087,1038.54Z"/><path d="M3129.17,967.62l-.15,0-203.5-57a19,19,0,0,1-13.19-23.46c.12-.42.25-.83.4-1.23q5.42-20.8,8.93-34.14c3.19-12.09,4.83-18.3,4.91-18.56q14.26-50.92,34.87-91.33,20.78-40.73,47.83-70l-.05,0,0-.05h0l.48-.5q27-29.09,71.66-56.87,44-27.39,105.74-54.29,59.09-25.62,96.16-43.74,35-17.13,46.43-25.81l0,0a19.07,19.07,0,0,1,1.68-1.14,130.1,130.1,0,0,0,27.93-29.16,124.54,124.54,0,0,0,17.46-37.52q16-57.23-18.54-111.59h0l-.05-.07h0l-.38-.63q-17.42-26.88-45.73-45.94-29.4-19.81-70.84-31.42-39.74-11.15-75.69-9.13a187.77,187.77,0,0,0-68.07,16.76q-32.2,14.82-59.89,43.81-28.21,29.55-51.89,74.23l-16.81-8.89,16.81,8.91A19,19,0,0,1,2961,367.2L2762.9,284.13l7.32-17.56-7.36,17.55a19,19,0,0,1-10.19-24.91l0-.07q25.58-73.15,75.23-127.8,49.93-55,123.68-90.66l8.26,17.06-8.29-17.13c.27-.12.53-.25.8-.36Q3026,5,3110.65.61q84.42-4.33,179.19,22.23,99.28,27.83,171.61,76.37,73.07,49,118.35,119,45,69.72,57.78,140.19,12.89,71.14-7.09,142.5a278.2,278.2,0,0,1-32.92,74,306.9,306.9,0,0,1-54,63.55l-12.73-14.06,12.77,14.1-.69.6q-31.8,28.33-90.87,61.81-57.93,32.8-143.43,71-42.49,19.05-70.46,36.14-26.16,16-37.94,29.45-11.59,13.28-23.26,41.37-12.55,30.25-24.32,75.24l.07,0a19,19,0,0,1-23.22,13.6l-.32-.09Zm-175.45-88.69L3121,925.82q10.18-36,20.76-61.45,14.11-34,29.77-51.9,15.49-17.7,46.8-36.85,29.52-18,74.78-38.33,83.38-37.21,140.21-69.42,55.28-31.29,84.25-57.16l.46-.43h0l0,0,0,0a269.77,269.77,0,0,0,47.27-55.65,240.83,240.83,0,0,0,28.42-64q17.68-63.15,6.36-125.56Q3588.78,302,3548,238.76T3440.39,130.83q-67.18-45.09-160.82-71.34-89.18-25-167-21-76.83,3.93-143.77,36.06l-.61.31h0l0,0q-67.14,32.49-112.1,82-39,43-61.61,99.28l166.11,69.66q22.65-39.12,49.68-67.42,32.74-34.31,71.48-52.13A225.62,225.62,0,0,1,3163.49,186q42.38-2.35,88,10.41,47.3,13.26,81.77,36.49,34.82,23.44,56.45,56.88c.21.28.4.57.59.87l-16.06,10.2,16.05-10.17Q3434,359.58,3413.42,433a162.16,162.16,0,0,1-22.8,48.84,167.69,167.69,0,0,1-36.38,37.73c-.46.44-.95.85-1.46,1.25l-.07-.09h0l0,.06q-14.41,11-52.78,29.74-36.31,17.76-97.74,44.38-58.83,25.68-100.68,51.7-40.32,25.14-63.93,50.51-.21.25-.45.51l-.06,0Q3013.61,723,2995.22,759q-18.54,36.39-32,84.42c-1.76,6.28-3.38,12.24-4.92,18.09Q2956.37,868.77,2953.72,878.93Z"/><polyline class="cls-12" points="2905.75 1140.43 2945.75 1151.64 2983.02 1009.4 2945.42 998.86"/><path class="cls-12" d="M2952.72,878.93,3009,894.7a424.67,424.67,0,0,1,48.92-143.89c15.82-14.92,33.46-30.37,53-45.89a820.07,820.07,0,0,1,75.17-53l93.57-51.43a231.32,231.32,0,0,0,85.45-44.3c73.21-60.59,83.67-148,85.64-169.72-.34-22.15-3.77-55.62-20.18-91.38-39.64-86.44-130.86-133.57-211.83-142.42-93.68-10.24-189.29,29-243.69,99.69A238.81,238.81,0,0,0,2939.46,318l42.56,15c3.42-13.44,22.14-81,90.13-121.24,55.93-33.08,110.95-27.38,127.67-25,27.14,2.73,95.7,13.41,154.23,67.9,18.45,17.17,54.36,50.6,62.75,99.48,11.94,69.63-35.93,147.55-117.83,196.33a1413.32,1413.32,0,0,0-146.56,67.2q-26.92,14.25-51.86,28.88a274.33,274.33,0,0,0-47.89,35,291.34,291.34,0,0,0-32.88,35.76c-12.88,16.47-31.7,44.16-47.3,84.1"/></svg>