<svg id="Layer_1" data-name="Layer 1" xmlns="http://www.w3.org/2000/svg" viewBox="0 0 3119.64 3098.11"><defs><style>.cls-1,.cls-8{fill:#001438;}.cls-2{fill:#fff;}.cls-10,.cls-11,.cls-12,.cls-13,.cls-2,.cls-3,.cls-4,.cls-5,.cls-6,.cls-7,.cls-8,.cls-9{fill-rule:evenodd;}.cls-3{fill:#96d0ff;}.cls-4{fill:#12b8ff;}.cls-5{fill:#0988f0;}.cls-6{fill:#0067c7;}.cls-7{fill:#c9e7ff;}.cls-9{fill:#00264a;}.cls-10{fill:#ff0;}.cls-11{fill:#e8ae00;}.cls-12{fill:#fc0;}.cls-13{fill:#ffffb2;}</style></defs><path class="cls-1" d="M2892,0h29.45a73.49,73.49,0,0,1,52,22,79.24,79.24,0,0,1,23.2,56.29V1226.68a79.23,79.23,0,0,1-23.2,56.28,73.5,73.5,0,0,1-52,22H2892a73.64,73.64,0,0,1-52.07-22,79.33,79.33,0,0,1-23.16-56.28V78.25A79.33,79.33,0,0,1,2839.94,22,73.64,73.64,0,0,1,2892,0Z"/><path class="cls-2" d="M2892,50.53h29.45a27.81,27.81,0,0,1,27.71,27.71V1226.68a27.81,27.81,0,0,1-27.71,27.71H2892a27.79,27.79,0,0,1-27.72-27.71V78.24A27.79,27.79,0,0,1,2892,50.53Z"/><path class="cls-3" d="M2949.17,203.33v1065a27.81,27.81,0,0,1-27.71,27.72H2892a27.79,27.79,0,0,1-27.72-27.72v-1065A27.79,27.79,0,0,1,2892,175.6h29.45a27.8,27.8,0,0,1,27.71,27.73Z"/><path class="cls-1" d="M2779.86,2514.6c7.27,2.13,14.07,4.33,20.39,6.55,78.64,27.84,140.6,79.17,178.05,141.27,39.06,64.81,51.69,141.44,29.68,216.67q-1.8,6.12-4.7,14.33l0,0c-28.45,80.41-91.7,141.53-170.89,175.33-75.63,32.27-166.15,39.46-253.61,13.85-7.24-2.11-14.06-4.3-20.35-6.54-78.66-27.82-140.61-79.16-178.06-141.25-39.09-64.84-51.7-141.49-29.68-216.68,1.39-4.75,2.93-9.56,4.64-14.33,28.47-80.44,91.7-141.54,170.89-175.35,75.62-32.29,166.16-39.46,253.59-13.87Zm-17.71,99.4c-5.48-1.94-10.72-3.63-15.64-5.08-66.92-19.59-134.92-14.63-190.78,9.19-52.27,22.34-93.54,61.33-111.38,111.73-1,2.88-1.95,5.84-2.85,8.81-13.79,47.15-5,96.6,20.85,139.52,27.54,45.68,74.19,83.82,134.21,105.08,5.49,1.94,10.72,3.64,15.65,5.08,66.88,19.57,134.9,14.6,190.76-9.23,52.29-22.31,93.54-61.32,111.39-111.69l.12-.16c.74-2.18,1.67-5.08,2.72-8.68,13.8-47.13,5.06-96.58-20.84-139.53-27.53-45.65-74.21-83.81-134.21-105Z"/><path class="cls-4" d="M2763.2,2561.76c154.35,45.18,242,187.85,195.64,318.64s-209,200.25-363.31,155.07-242-187.85-195.66-318.66,208.94-200.23,363.33-155Z"/><path class="cls-5" d="M2613.51,3040.17c-6-1.4-12-3-18-4.7-154.36-45.17-242-187.85-195.66-318.66,36.51-103.24,145.54-168.2,265.73-168.83,6,1.4,12,3,18,4.7,154.37,45.21,242,187.88,195.66,318.68-36.52,103.23-145.53,168.22-265.73,168.81Z"/><path class="cls-6" d="M2391.44,2747.61a217.19,217.19,0,0,1,8.43-30.8c36.51-103.24,145.54-168.2,265.73-168.83,6,1.4,12,3,18,4.7,96,28.1,166.05,93.81,194.3,170.94-63.29,102.46-206.24,152.1-342.7,112.15-58.87-17.22-108-48.66-143.74-88.16Z"/><path class="cls-1" d="M2601.55,2689.66c24.66,15.05,65.84,26.5,108.25,28.55,36.78,1.76,72.27-4,93.85-21.47a691.85,691.85,0,0,0,51.77-98,769.86,769.86,0,0,0,38.77-115.18c24-94.64,31.65-195.05,26.26-296.45-5.12-95.84-21.87-192.67-47.49-286.62-137.48,30.67-265.53,53-371.43,62.41-47.26,4.21-90.57,5.76-129,4.28a1615.22,1615.22,0,0,1,143.69,304.68q69.89,200.74,85.28,417.77Zm103.64,129.25c-73.28-3.54-148.78-31.22-185.8-65.75a50.29,50.29,0,0,1-17-34.94q-12.54-215.49-81.21-413.17-68.37-196.28-193.09-375.49a50.47,50.47,0,0,1,59.79-77.94c37.92,16.92,110.24,19.29,204.87,10.89,112.43-10,252.82-35.66,403.84-70.84v0a50.41,50.41,0,0,1,59.75,34.3c35.21,115.27,58.31,236,64.72,356,5.92,111.27-2.56,221.81-29.13,326.53a869.88,869.88,0,0,1-44.11,130.14A795.23,795.23,0,0,1,2885,2756.9l-.1-.05a50.68,50.68,0,0,1-7.18,8.7c-43.51,42.1-108.66,56.42-172.49,53.36Z"/><path class="cls-2" d="M2552.73,2715.36c51.53,50.21,218.17,83.46,289.95,14,46.63-72,79.45-150.66,100.39-233.28,52.78-208,30.52-441.09-34.91-655.31h0c-289.85,67.54-542.85,100.69-640.88,56.9,173.94,248.4,268.22,521.21,285.49,817.7Z"/><path class="cls-3" d="M2552.73,2715.36c38.16,37.17,139.36,65,218.49,48.82,115.1-232.3,163.41-825.61-85-1005.19-234.85,47.87-335.65,175.91-419,138.67,174,248.39,268.22,521.21,285.49,817.7Z"/><path class="cls-1" d="M2502.05,2553.36c-8.29-6.6-9.27-18.93-2.18-27.5s19.57-10.19,27.86-3.59c55.75,44.26,127.33,58.2,200.79,47.43,78.51-11.51,159.12-51.14,225.31-112.24,8.19-7.51,20.64-7.3,27.81.47s6.31,20.19-1.88,27.7c-72.37,66.8-160.89,110.18-247.47,122.86-83.72,12.29-165.76-4-230.24-55.13Z"/><path class="cls-1" d="M2453.37,2351.43c-9.27-5.22-12.16-17.14-6.42-26.61s17.89-12.93,27.16-7.72c63.42,35.53,166,40.08,264.06,22.07s190.37-58.31,232.28-112.25c6.84-8.72,19.25-10.67,27.7-4.33s9.8,18.62,2.95,27.34c-48.43,62.35-150.52,108.07-257.75,127.76-106,19.49-218.5,13.79-290-26.26Z"/><path class="cls-1" d="M2358.27,2117.8c-9.63-4.58-13.31-16.23-8.2-26s17-14.05,26.65-9.47c72.16,34,179.21,33.77,285.14,7.83,106.15-26,210.29-77.66,276.55-146.48,7.73-8,20.22-8.55,27.89-1.26s7.58,19.66-.16,27.63c-71.91,74.67-183.5,130.37-296.63,158.07-114.14,28-230.84,27.58-311.24-10.29Z"/><path class="cls-1" d="M426.24,897.55l323.87,3.39v-.17h.17a58,58,0,0,1,6.5.38,132.5,132.5,0,0,1,87.87,39.5,125,125,0,0,1,36,88.46h.19v.16a40.88,40.88,0,0,1-.24,4.59L872.19,1706a125.84,125.84,0,0,1-38.17,88.5,133.18,133.18,0,0,1-94.75,37.75l-323.86-3.39v.18h-.17a57.88,57.88,0,0,1-6.5-.39,132.62,132.62,0,0,1-87.88-39.49,125,125,0,0,1-35.95-88.47h-.2v-.16a41,41,0,0,1,.25-4.59l8.37-672.08a125.72,125.72,0,0,1,38.17-88.5,133.09,133.09,0,0,1,94.74-37.76Zm323.44,96.23-324.23-3.41A29,29,0,0,0,405.08,999a36.26,36.26,0,0,0-10.87,25.51l-8.37,672.41c.1,1.15.15,2.36.15,3.54v.16h-.2v.37A36.28,36.28,0,0,0,396,1726.85a29.16,29.16,0,0,0,17.45,9l1.75,0h.17v.17h.42l324.23,3.41a29,29,0,0,0,20.36-8.66,36.18,36.18,0,0,0,10.88-25.51l8.37-672.4c-.1-1.16-.14-2.36-.14-3.55v-.16h.19v-.37a36.3,36.3,0,0,0-10.24-25.84,29.27,29.27,0,0,0-17.45-9l-1.75,0h-.17v-.17Z"/><path class="cls-5" d="M425.83,944l324.29,3.4a81.13,81.13,0,0,1,80.06,81.91l-8.44,676.32a81.48,81.48,0,0,1-82.07,80.2l-324.27-3.4a81.11,81.11,0,0,1-80-81.91l8.42-676.31c.56-44.59,37.49-80.68,82.06-80.21Z"/><path class="cls-6" d="M425.84,944q14.15.13,28.25.3c-29.3,18.82-58.11,38-65.76,72.09q-4.31,346-8.63,692.09c-1.81,31.49,12.9,51.86,26,73.31-40-4.85-70.93-36.71-70.45-74.63l8.58-689.6c.52-40.93,37.41-74,82-73.56Z"/><path class="cls-1" d="M2978.9,990.37l-324.21,3.41h-.42V994h-.18l-1.77,0a29.19,29.19,0,0,0-17.43,9,36.22,36.22,0,0,0-10.25,25.84v.37h.22v.16c0,1.19-.08,2.39-.18,3.55l8.38,672.4a36.18,36.18,0,0,0,10.88,25.51,29,29,0,0,0,20.37,8.66l324.21-3.41h.46v-.17h.14l1.77,0a29.13,29.13,0,0,0,17.43-9,36.2,36.2,0,0,0,10.25-25.84v-.37h-.21v-.16c0-1.18.07-2.39.14-3.54l-8.34-672.41A36.36,36.36,0,0,0,2999.27,999a29,29,0,0,0-20.37-8.65Zm-324.63-89.43,323.86-3.39a133.11,133.11,0,0,1,94.74,37.76,125.73,125.73,0,0,1,38.18,88.5l8.35,672.08a41,41,0,0,1,.24,4.59v.16h-.17a125.17,125.17,0,0,1-36,88.47,132.62,132.62,0,0,1-87.88,39.49,58.21,58.21,0,0,1-6.51.39H2989v-.18l-323.9,3.39a133.17,133.17,0,0,1-94.74-37.75,125.93,125.93,0,0,1-38.18-88.5l-8.34-672.09a38.64,38.64,0,0,1-.25-4.59v-.16h.18a125.06,125.06,0,0,1,35.95-88.46,132.58,132.58,0,0,1,87.88-39.5,58.36,58.36,0,0,1,6.51-.38h.18v.17Z"/><path class="cls-5" d="M2978.52,944l-324.29,3.4a81.09,81.09,0,0,0-80,81.91l8.41,676.32a81.52,81.52,0,0,0,82.09,80.2l324.28-3.4a81.1,81.1,0,0,0,80-81.91l-8.41-676.31c-.57-44.59-37.52-80.68-82.09-80.21Z"/><path class="cls-4" d="M2978.52,944l-28.25.3c29.31,18.82,58.12,38,65.75,72.09q4.36,346,8.63,692.09c1.84,31.49-12.9,51.86-26,73.31,40-4.85,70.92-36.71,70.42-74.63q-4.29-344.8-8.59-689.6c-.5-40.93-37.41-74-82-73.56Z"/><path class="cls-1" d="M1694.62,2878c161.86,1.28,417.73-40.35,642-103,174.29-48.7,325.74-108.09,389.83-166.24,36.31-260.92,55.47-706,22-1134.58-25.21-321.82-79.8-632.34-178.74-843.38-58.8-125.43-172.91-221.9-316-289C2091.78,265.9,1893.42,228,1694.07,228S1296.35,265.9,1134.45,341.8c-143.14,67.11-257.22,163.58-316,289-98.95,211-153.54,521.56-178.72,843.38-33.53,428.58-14.36,873.66,21.93,1134.58,64.12,58.15,215.57,117.54,389.85,166.24,224.31,62.68,480.19,104.31,642,103ZM2374.24,2911c-235,65.65-505.92,109.28-680.17,108-174.24,1.28-445.16-42.35-680.18-108-208.27-58.21-392.81-136-468.78-219.5A70.3,70.3,0,0,1,525,2651.61c-39.53-265.16-61.6-736.34-26.26-1187.92,26.31-336.36,84.77-663.89,192-892.58,73.88-157.58,212.24-276.45,384-357C1256.29,129,1475.69,86.46,1694.07,86.46s437.76,42.57,619.3,127.67c171.77,80.53,310.14,199.4,384,357,107.18,228.69,165.66,556.22,192,892.58,35.35,451.58,13.29,922.76-26.23,1187.92H2863a70.19,70.19,0,0,1-16.48,35.93c-73.64,85-260.72,164.33-472.27,223.46Z"/><path class="cls-7" d="M1694.07,2948.52c314.07,2.47,961.83-148.62,1099.13-307.14C2860.86,2187.55,2876.42,1119,2633.55,601,2356.14,9.29,1032,9.29,754.58,601,511.71,1119,527.28,2187.55,594.93,2641.38,732.24,2799.9,1380,2951,1694.07,2948.52Z"/><path class="cls-3" d="M1403.22,184c-290.26,54.78-544,193.74-648.64,417C511.71,1119,527.28,2187.55,594.93,2641.38c58.48,67.52,209.57,133.67,388,187.21-141.3-289.18-225.09-587.77-270.21-904-56.59-396.68-57.23-822.74,128.65-1238.38C919.78,511,1183.26,280.93,1405.64,188.4l-2.42-4.42Z"/><path class="cls-2" d="M2434.23,2819.68c165.67-51.87,303.68-114.47,359-178.3C2860.86,2187.55,2876.42,1119,2633.55,601c-102-217.47-345.39-354.9-626.23-412.51C2229.69,281,2493.06,511,2571.44,686.23c185.88,415.64,185.24,841.7,128.64,1238.38-44.64,313-127.19,608.68-265.85,895.07Z"/><path class="cls-1" d="M2306.12,357.17c-171.21-92.82-391.14-139.25-612-139.25S1253.2,264.36,1082,357.17l238.06,450.12,373-6.06h1.9l373,6.06,238.06-450.12Zm-612-260.53c262.44,0,526,61.75,722.73,185.19a60.52,60.52,0,0,1,23.4,80.64l-282.43,534-.07,0a60.43,60.43,0,0,1-54.41,32.26l-409.24-6.65-405.75,6.59a60.51,60.51,0,0,1-58-32.16l-282.43-534,0,0a60.47,60.47,0,0,1,21.29-79.33c196.94-124.31,461.45-186.48,724.84-186.48Z"/><path class="cls-5" d="M2386.69,334.28c-373.92-236-1011.37-236-1385.23,0l282.43,534,410.17-6.67,410.2,6.67,282.43-534Z"/><path class="cls-6" d="M1403.25,184c-148.51,28-287.49,78.09-401.79,150.24l47.71,90.25c107.66-98.37,237.9-186.8,356.47-236.13l-2.39-4.36Z"/><path class="cls-4" d="M2386.69,334.28c-108.54-68.5-239.23-117.07-379.26-145.79,112.42,46.82,235.3,128.75,339.49,221l39.77-75.19Z"/><path class="cls-1" d="M2518.69,807a137.72,137.72,0,0,1,12.73,10.77c74.88,71.87,114.78,283.19,119.95,495.69,5.12,210.29-23.16,427.27-84.67,513.49a165.73,165.73,0,0,1-14.88,18.26,50.61,50.61,0,0,1-17,11.6c-198.15,99.15-527.39,148.74-854.95,148.74-329.37,0-660.48-50.13-858.28-150.4a50.2,50.2,0,0,1-13.56-10l-.07.07A164.38,164.38,0,0,1,793.13,1827c-61.53-86.22-89.82-303.2-84.71-513.49,5.17-212.5,45.08-423.82,120-495.69A138.47,138.47,0,0,1,844,804.92a49.87,49.87,0,0,1,5-3.12l0-.07c68.86-38,451.64-57.06,831-57.06s762.15,19,831,57.06a50.16,50.16,0,0,1,7.78,5.29ZM2460,885.31c-.78-.74-1.52-1.41-2.19-2-61.23-28.44-417.9-42.64-777.88-42.64S963.2,854.88,902,883.32c-.67.58-1.38,1.25-2.15,2-55.73,53.46-86.11,238.54-90.75,430.05-4.7,193.69,17.65,388.36,67.33,458l1.34,1.8c183.68,89.61,492.09,134.42,802.13,134.42s618.47-44.81,802.13-134.42l1.34-1.8c49.68-69.62,72.05-264.29,67.35-458-4.66-191.51-35-376.58-90.75-430Z"/><path class="cls-7" d="M2485.64,843.16c144.27,103,154.06,839.33,28.85,969.81-380.33,192.8-1288.86,192.8-1669.18,0C720.1,1682.49,729.89,946.12,874.17,843.16c121.9-67.31,1489.57-67.31,1611.47,0Z"/><path class="cls-3" d="M828.18,1790.05c-106.82-177-91.35-848.88,46-946.89,121.9-67.31,1489.57-67.31,1611.47,0-33.27-13.92-90.5,47.51-81.31,76.13C1960,1155,1377.38,1523.59,933.08,1759.27c-44.92-8.39-65.67-10.59-104.9,30.78Z"/><path class="cls-1" d="M2414.72,896.37a130.87,130.87,0,0,1,19,16.09c63.36,63.72,97.19,236.81,101.71,410.7,4.49,172.12-19,350-70.52,425.61a151.05,151.05,0,0,1-18.1,22,50.15,50.15,0,0,1-13.55,9.53l.11.17C2260,1864.28,1969.14,1906.2,1679.9,1906.2s-580.07-41.92-753.45-125.77a49.26,49.26,0,0,1-17.27-13.69,155.82,155.82,0,0,1-14.24-18c-51.48-75.63-75.05-253.49-70.56-425.61,4.52-173.89,38.36-347,101.71-410.68a130.59,130.59,0,0,1,19-16.11,51.87,51.87,0,0,1,11.81-6c76.2-30.13,401.19-45.2,723-45.2,332.69,0,668.78,16.1,729.87,48.31a51.65,51.65,0,0,1,4.88,2.93l.07-.06Zm-55.61,77.54a23.45,23.45,0,0,0-2.65-2.31c-53.95-23-363.6-34.44-676.56-34.44s-622.67,11.49-676.59,34.45a27.89,27.89,0,0,0-2.61,2.3c-46.29,46.55-71.61,196.17-75.66,351.41-4.08,157,14.38,314.8,55.56,375.3.65,1,1.29,1.86,1.93,2.73,159.66,73.93,427.78,110.9,697.37,110.9s537.7-37,697.38-110.91c.64-.86,1.28-1.76,1.91-2.72,41.19-60.5,59.64-218.28,55.57-375.3-4.06-155.24-29.37-304.87-75.65-351.41Z"/><path class="cls-8" d="M2384.49,933.2c125.79,85.61,134.31,698.1,25.17,806.63-331.88,160.53-1127.61,160.53-1459.51,0C841,1631.3,849.52,1018.81,975.3,933.2c106.29-56,1302.93-56,1409.19,0Z"/><path class="cls-9" d="M2446.18,1040.49c62.76,204.41,50.66,612.65-36.52,699.35-316.08,152.87-1052.9,160.15-1409,21.84C1173.41,1339,1682.2,1032.81,2283,1032.81q82.83,0,163.15,7.68Z"/><path class="cls-1" d="M1279.74,2952.69c-158-30.42-322.16-73.94-455.31-124.14C702.77,2782.7,605,2730,556.83,2674.34a50.19,50.19,0,0,1-11.75-25.66H545c-10.13-68-19.11-149.45-26.25-240.63-6.65-84.91-11.74-180.22-14.69-282.88a50.37,50.37,0,0,1,72.62-46.54l0,0c80.76,40.16,165.57,77,256.86,108.41a1854.53,1854.53,0,0,0,292.82,74.89,50.47,50.47,0,0,1,40.83,39l170.39,588.23a50.35,50.35,0,0,1-57.82,63.47l0,.09ZM860,2734.2c105,39.61,231,75,357.66,102.73l-139.36-481.14a1951.43,1951.43,0,0,1-277.46-73.25c-67.15-23.09-131.25-49.19-193.12-77.46,2.91,68,6.89,133.56,11.74,195.46,6.4,81.74,14.3,155.34,23.2,217.93C682.83,2657.29,761.41,2697,860,2734.2Z"/><path class="cls-5" d="M1289.22,2903.14c-292.08-56.21-603.87-157.37-694.29-261.76-19.48-130.77-34.64-312.62-40.55-517.59,165.8,82.46,347.16,150.9,563.51,187.84q85.66,295.77,171.33,591.51Z"/><path class="cls-6" d="M982.94,2828.59c-178.45-53.53-329.53-119.71-388-187.21-19.48-130.77-34.64-312.62-40.55-517.59,67.85,33.74,138.31,65.13,212.71,93C816,2426.91,885.89,2630,982.94,2828.59Z"/><path class="cls-1" d="M2170.51,2836.93c126.7-27.72,252.63-63.12,357.66-102.73,98.56-37.16,177.15-76.91,217.34-115.73,8.91-62.59,16.79-136.19,23.19-217.93,4.88-62.06,8.88-127.81,11.78-195.95a2120.6,2120.6,0,0,1-202.61,77.66c-86.47,28.32-175.91,52.11-267.65,72.32l-139.71,482.36Zm393.18-8.38c-133.13,50.2-297.24,93.72-455.3,124.14l0-.09a50.33,50.33,0,0,1-57.8-63.47l170.64-589.2a50.44,50.44,0,0,1,38.79-37.65c98.13-20.7,194-45.6,286.7-76,91.71-30,179.66-65.2,262.74-106.63a50.38,50.38,0,0,1,74.66,45.48c-3,102.66-8.06,198-14.7,282.88-7.15,91.18-16.13,172.66-26.24,240.63h-.1a50.34,50.34,0,0,1-11.74,25.66c-48.18,55.62-145.94,108.36-267.62,154.21Z"/><path class="cls-6" d="M2098.92,2903.14c292.08-56.21,603.85-157.37,694.28-261.76,19.48-130.77,34.65-312.62,40.55-517.59-172.87,86.49-363.24,145.56-563.51,187.84l-171.32,591.51Z"/><path class="cls-5" d="M2434.23,2819.68c165.67-51.87,303.68-114.47,359-178.3,19.48-130.77,34.65-312.62,40.55-517.59A1901.57,1901.57,0,0,1,2648.68,2204c-48.29,211.55-117.72,415.88-214.45,615.66Z"/><path class="cls-10" d="M1315.35,1645.12c103.46,0,187.32-140.66,187.32-314.17,0-88.25-21.7-168-56.63-225q-60.06,18.86-120.32,37.18-71.22,21.64-142.66,42.51c-21.27,30.56-49,80.46-55,145.36C1114.21,1478.35,1217.09,1645.12,1315.35,1645.12Z"/><path class="cls-1" d="M1694.06,2715.53,1842,2480l147.81-235.32H1398.36L1546.14,2480l147.92,235.53Zm217.78-198.33L1729.25,2808a38.69,38.69,0,0,1-15,13.93c-19.29,10.27-44,4.22-55.17-13.53L1476.27,2517.2l-181.46-288.93a35,35,0,0,1-6.91-20.82c0-20.56,18.12-37.23,40.46-37.23h731.43v.09a43.18,43.18,0,0,1,20.22,5c19.27,10.27,25.88,33,14.7,50.75L1911.84,2517.2Z"/><polygon class="cls-10" points="1694.06 2789.75 1876.91 2498.61 2059.79 2207.45 1694.06 2207.45 1328.36 2207.45 1511.21 2498.61 1694.06 2789.75 1694.06 2789.75"/><polygon class="cls-11" points="1328.36 2207.45 1511.21 2498.61 1694.06 2789.75 1694.06 2643.98 1474.27 2293.99 1328.36 2207.45 1328.36 2207.45"/><polygon class="cls-12" points="2059.75 2207.45 1694.06 2207.45 1328.36 2207.45 1474.27 2293.99 1913.85 2293.99 2059.75 2207.45 2059.75 2207.45"/><path class="cls-1" d="M1694.06,2588.3l83.7-133.28,83.59-133.1H1526.77l83.59,133.1,83.7,133.28ZM1830.14,2483l-109.71,174.69a28.74,28.74,0,0,1-11.2,10.41c-14.46,7.72-33,3.18-41.37-10.13L1558,2483,1449.1,2309.6a26.27,26.27,0,0,1-5.17-15.61c0-15.41,13.59-27.91,30.34-27.91h439.58v.07a32,32,0,0,1,15.17,3.75c14.46,7.7,19.41,24.76,11,38.06l-109.91,175Z"/><polygon class="cls-10" points="1694.06 2643.96 1803.94 2468.99 1913.85 2293.99 1694.06 2293.99 1474.27 2293.99 1584.17 2468.99 1694.06 2643.96 1694.06 2643.96"/><polygon class="cls-13" points="1474.27 2293.99 1913.85 2293.99 1694.06 2643.98 1847.96 2321.5 1474.27 2293.99 1474.27 2293.99"/><path class="cls-1" d="M234.44,2806.47l25.29-564.28a186.68,186.68,0,0,1,373,17l-25.29,564.27a186.68,186.68,0,0,1-373-17Zm126-559.47-25.27,564.26a85.86,85.86,0,0,0,171.55,7.4L532,2254.4a85.87,85.87,0,0,0-171.57-7.4Z"/><path class="cls-2" d="M284.81,2808.87l25.27-564.27c3.36-74.88,67.37-133.39,142.24-130h0c74.87,3.36,133.39,67.34,130,142.22l-25.28,564.27c-3.36,74.89-67.36,133.39-142.24,130h0c-74.86-3.36-133.38-67.37-130-142.23Z"/><path class="cls-3" d="M409,2119.64a134.88,134.88,0,0,1,43.29-5.08h0c74.87,3.36,133.38,67.34,130,142.22l-25.28,564.27a135.86,135.86,0,0,1-44.25,94.32,135.19,135.19,0,0,1-43.3,5.07h0c-74.87-3.36-133.37-67.35-130-142.22L364.78,2214A135.82,135.82,0,0,1,409,2119.64Z"/><path class="cls-1" d="M725.32,1810.83,304.78,1792a22.86,22.86,0,0,0-16.44,6.15l-1.25,1.1a23.43,23.43,0,0,0-6.25,14.9v0a22.71,22.71,0,0,0,6,16.35,23.28,23.28,0,0,0,16.18,7.54l420.54,18.85a22.65,22.65,0,0,0,16.38-6,23.38,23.38,0,0,0,7.56-16.2v0a22.77,22.77,0,0,0-6-16.33,23.32,23.32,0,0,0-16.18-7.56ZM309.6,1690.92l420.53,18.85a124.71,124.71,0,0,1,118.53,124.75,50.41,50.41,0,0,1-.39,9.48,124.74,124.74,0,0,1-129.55,114l-420.53-18.85A124.71,124.71,0,0,1,179.65,1814.4a50.54,50.54,0,0,1,.39-9.49,123.52,123.52,0,0,1,37-78.48c1-1.06,2-2.09,3.1-3.1a124,124,0,0,1,89.45-32.41Z"/><path class="cls-2" d="M727.72,1760.3l-420.54-18.85a73.87,73.87,0,0,0-76.87,70.28v0a73.89,73.89,0,0,0,70.3,76.88l420.53,18.83A73.86,73.86,0,0,0,798,1837.18h0a73.88,73.88,0,0,0-70.29-76.88Z"/><path class="cls-3" d="M727.72,1760.3l-350.81-15.71a73.87,73.87,0,0,0-76.9,70.28h0a73.87,73.87,0,0,0,70.29,76.87l350.82,15.71A73.85,73.85,0,0,0,798,1837.2v0a73.88,73.88,0,0,0-70.29-76.88Z"/><path class="cls-1" d="M674.3,2555.73l-465.55-20.85-.1,0a150.78,150.78,0,0,1-143.16-157v-.11a149.84,149.84,0,0,1,48.85-103.92c1-.93,2.07-1.81,3.15-2.65a150,150,0,0,1,105-36.59l465.69,20.87A149.52,149.52,0,0,1,792,2304.28l.1.12.09-.08a150,150,0,0,1,39.23,108.16v.23a150.56,150.56,0,0,1-157,143l-.14,0ZM217,2434.32l458.48,20.55a53.8,53.8,0,0,1,6.21.23,49.9,49.9,0,0,0,48.89-44.82c0-1.67.08-3.34.24-5a49.4,49.4,0,0,0-13.11-33l.08-.08a49.68,49.68,0,0,0-34.38-16L217.7,2335.31a49,49,0,0,0-33.6,11.33c-.6.59-1.19,1.17-1.82,1.74a49.43,49.43,0,0,0-15.9,31.66,46.07,46.07,0,0,1-.25,5.1,49.17,49.17,0,0,0,12.92,32.9A49.72,49.72,0,0,0,210.94,2434a48.9,48.9,0,0,1,6,.33Z"/><path class="cls-2" d="M676.84,2505.39l-465.7-20.85c-54.87-2.47-97.76-49.39-95.31-104.27h0c2.48-54.88,49.38-97.77,104.27-95.31l465.67,20.86c54.88,2.47,97.77,49.38,95.31,104.25h0c-2.45,54.88-49.37,97.78-104.24,95.31Z"/><path class="cls-3" d="M676.84,2505.39,282.7,2487.72c-54.89-2.45-97.77-49.36-95.31-104.24h0c2.46-54.89,49.37-97.77,104.25-95.31l394.13,17.65c54.89,2.46,97.77,49.38,95.31,104.25h0c-2.45,54.89-49.37,97.77-104.24,95.31Z"/><path class="cls-1" d="M692.33,2156.61l-465.7-20.87a149.85,149.85,0,0,1-104-48.85c-.93-1-1.81-2.07-2.64-3.14a149.53,149.53,0,0,1,12.2-208.84l.12-.12-.07-.09a150.05,150.05,0,0,1,108.16-39.24l465.68,20.87a149.61,149.61,0,0,1,103.82,48.81l.12.11.08-.07a149.77,149.77,0,0,1-9.56,212l-.12.1.07.09a150,150,0,0,1-108.14,39.24ZM231.44,2035l465.68,20.87a49.25,49.25,0,0,0,35.41-13.06l.07.07a49.21,49.21,0,0,0,3-69.8l.07-.06a49.61,49.61,0,0,0-34.37-16l-465.68-20.87a49.25,49.25,0,0,0-35.41,13.08l-.08-.07a49.57,49.57,0,0,0-16,34.37,49,49,0,0,0,11.34,33.59c.59.59,1.17,1.2,1.73,1.82a49.43,49.43,0,0,0,34.3,16.09Z"/><path class="cls-2" d="M694.71,2106.26,229,2085.39c-54.88-2.46-97.77-49.37-95.32-104.25h0c2.47-54.89,49.39-97.78,104.26-95.33l465.68,20.89c54.89,2.44,97.78,49.36,95.32,104.24h0c-2.46,54.88-49.37,97.77-104.26,95.32Z"/><path class="cls-3" d="M694.72,2106.26,302.4,2088.68c-54.87-2.47-97.75-49.38-95.3-104.26h0c2.46-54.88,49.37-97.77,104.26-95.31l392.3,17.59c54.88,2.44,97.77,49.36,95.31,104.24h0c-2.46,54.88-49.37,97.77-104.25,95.32Z"/><path class="cls-1" d="M618,2153.27l-465.56-20.85-.1,0A49.08,49.08,0,0,0,117,2145.29l-.12.12.07.07a49.39,49.39,0,0,0-16.08,34.28v.12A49.21,49.21,0,0,0,114,2215.19c.52.56,1,1.14,1.49,1.72a49.61,49.61,0,0,0,32.81,14.37l465.67,20.86a49.29,49.29,0,0,0,35.42-13.06c.56-.52,1.12-1,1.7-1.48a49.64,49.64,0,0,0,14.38-32.82v-.1a49,49,0,0,0-12.88-35.26l-.11-.12-.08.07a49.43,49.43,0,0,0-34.28-16.08l-.14,0ZM160.61,2031.88l458.48,20.54a48,48,0,0,1,8,.42,149.77,149.77,0,0,1,99.81,48.58l-.09.09a150.16,150.16,0,0,1,39.47,103.29,50.41,50.41,0,0,1-.39,9,149.55,149.55,0,0,1-45.64,96.88c-.94,1-1.92,2-3,2.94a150,150,0,0,1-108.16,39.23L143.45,2332a149.43,149.43,0,0,1-101.1-45.89c-1-.93-2-1.91-2.93-3A150,150,0,0,1,.05,2179.73a50.12,50.12,0,0,1,.4-9A149.73,149.73,0,0,1,49,2071l.08.07a150.21,150.21,0,0,1,103.3-39.46,50.21,50.21,0,0,1,8.2.31Z"/><path class="cls-2" d="M620.46,2102.94,154.8,2082.05c-54.89-2.43-101.8,40.44-104.26,95.32h0c-2.46,54.88,40.42,101.79,95.3,104.25l465.69,20.86c54.88,2.47,101.8-40.43,104.26-95.31h0c2.45-54.88-40.44-101.79-95.33-104.24Z"/><path class="cls-3" d="M620.49,2102.92l-388.64-17.41c-54.89-2.45-101.8,40.44-104.26,95.31h0c-2.47,54.9,40.43,101.8,95.3,104.27l388.63,17.4c54.89,2.46,101.8-40.43,104.26-95.31h0c2.46-54.88-40.42-101.79-95.29-104.26Z"/><path class="cls-1" d="M508.11,2538.6l47-848.85a50.33,50.33,0,0,1,53-47.47,49.56,49.56,0,0,1,10.21,1.62,727.83,727.83,0,0,1,152.52,56.5c49,24.89,90.89,54,120.43,83.67a50.43,50.43,0,0,1,10,14.34h0c52.63,114,78.74,240.72,70.56,366.82-7.6,117-44.67,233.25-117.37,338.35a50.11,50.11,0,0,1-22,17.84c-41.9,20.16-84.72,37.76-129.32,50.35-46.59,13.15-94.86,20.72-145.59,19.94a50.34,50.34,0,0,1-49.57-51.1l.07-2Zm144-779.61-40.39,729.07a440.07,440.07,0,0,0,64.12-13.24c34.79-9.81,69-23.55,103-39.45,56.93-86.41,86.19-181.37,92.39-277,6.86-105.58-14.45-212.22-57.73-309.27-22-20.42-52.44-40.75-88.23-58.93A610.07,610.07,0,0,0,652.13,1759Z"/><path class="cls-5" d="M558.37,2541.38q23.52-424.43,47-848.86c104,25.64,199.21,75.85,250.13,127.08,94.63,205.05,97.61,452.76-42.48,655.29-80.65,39-163.86,67.89-254.68,66.49Z"/><path class="cls-6" d="M646.61,1704.11c87.5,27.53,164.81,71.12,208.92,115.49,90.26,195.59,97.13,430-24,627-72.67,32.8-147.81,55.77-229.06,54.52l44.15-797Z"/><path class="cls-1" d="M930,1914.64c19.36,66.89,29.71,136.28,29.61,205.85a668.52,668.52,0,0,1-30.76,200.84,36.68,36.68,0,0,1-46,24.05l-1.63-.56v0l-168.73-61.9a36.71,36.71,0,0,1-23.86-38.68l18.06-270.11a36.63,36.63,0,0,1,25-32.31l150.5-53A36.65,36.65,0,0,1,929,1911.2a33.61,33.61,0,0,1,1,3.44Zm-43.75,205.58a657,657,0,0,0-17.18-149.07l-90.83,32-14.72,220.31,105.72,38.81a602.33,602.33,0,0,0,17-142.06Z"/><path class="cls-6" d="M894.4,1923.35c36.55,125.21,39.67,259.87-.57,387q-84.35-31-168.72-61.91,9.07-135.91,18.18-271.85l151.11-53.27Z"/><path class="cls-10" d="M2046.14,1646c-103.45,0-187.32-140.66-187.32-314.17,0-88.25,21.7-168,56.64-225q60.06,18.87,120.31,37.18,71.22,21.64,142.66,42.51c21.28,30.56,49,80.46,55,145.36C2247.29,1479.21,2144.41,1646,2046.14,1646Z"/></svg>